SplineFontDB: 3.2
FontName: font_tiny5
FullName: font_tiny5
FamilyName: font_tiny5
Weight: medium
Copyright: (CC) Gissio 2022-2023 Creative Commons Zero v1.0 Universal
Version: 001.000
ItalicAngle: 0
UnderlinePosition: -192
UnderlineWidth: 64
Ascent: 768
Descent: 256
InvalidEm: 0
LayerCount: 2
Layer: 0 0 "Atr+AOEA-s" 1
Layer: 1 0 "Fore" 0
FSType: 0
OS2Version: 0
OS2_WeightWidthSlopeOnly: 0
OS2_UseTypoMetrics: 0
CreationTime: 1685501249
ModificationTime: 1685501344
PfmFamily: 49
TTFWeight: 500
TTFWidth: 5
LineGap: 0
VLineGap: 0
Panose: 2 0 6 9 9 0 0 0 0 0
OS2TypoAscent: 768
OS2TypoAOffset: 0
OS2TypoDescent: -256
OS2TypoDOffset: 0
OS2TypoLinegap: 0
OS2WinAscent: 768
OS2WinAOffset: 0
OS2WinDescent: 256
OS2WinDOffset: 0
HheadAscent: 768
HheadAOffset: 0
HheadDescent: -256
HheadDOffset: 0
OS2Vendor: 'PfEd'
MarkAttachClasses: 1
DEI: 91125
Encoding: UnicodeBmp
UnicodeInterp: none
NameList: Adobe Glyph List
DisplaySize: -24
AntiAlias: 1
FitToEm: 1
WinInfo: 39 39 22
BeginPrivate: 0
EndPrivate
TeXData: 1 0 0 346030 173015 115343 0 1048576 115343 783286 444596 497025 792723 393216 433062 380633 303038 157286 324010 404750 52429 2506097 1059062 262144
BeginChars: 65536 256

StartChar: 0021
Encoding: 33 33 33
Width: 256
Flags: HMW
LayerCount: 2
Fore
SplineSet
0 0 m 25
 0 128 l 25
 128 128 l 25
 128 0 l 25
 0 0 l 25
0 256 m 25
 0 640 l 25
 128 640 l 25
 128 256 l 25
 0 256 l 25
EndSplineSet
EndChar

StartChar: 0022
Encoding: 34 34 34
Width: 512
Flags: HMW
LayerCount: 2
Fore
SplineSet
0 384 m 25
 0 640 l 25
 128 640 l 25
 128 384 l 25
 0 384 l 25
256 384 m 25
 256 640 l 25
 384 640 l 25
 384 384 l 25
 256 384 l 25
EndSplineSet
EndChar

StartChar: 0023
Encoding: 35 35 35
Width: 768
Flags: HMW
LayerCount: 2
Fore
SplineSet
128 0 m 25
 128 128 l 25
 0 128 l 25
 0 256 l 25
 128 256 l 25
 128 384 l 25
 0 384 l 25
 0 512 l 25
 128 512 l 25
 128 640 l 25
 256 640 l 25
 256 512 l 25
 384 512 l 25
 384 640 l 25
 512 640 l 25
 512 512 l 25
 640 512 l 25
 640 384 l 25
 512 384 l 25
 512 256 l 25
 640 256 l 25
 640 128 l 25
 512 128 l 25
 512 0 l 25
 384 0 l 25
 384 128 l 25
 256 128 l 25
 256 0 l 25
 128 0 l 25
256 256 m 25
 384 256 l 25
 384 384 l 25
 256 384 l 25
 256 256 l 25
EndSplineSet
EndChar

StartChar: 0024
Encoding: 36 36 36
Width: 512
Flags: HMW
LayerCount: 2
Fore
SplineSet
128 -128 m 25
 128 0 l 25
 0 0 l 25
 0 128 l 25
 256 128 l 25
 256 -128 l 25
 128 -128 l 25
256 128 m 25
 256 256 l 25
 384 256 l 25
 384 128 l 25
 256 128 l 25
0 256 m 25
 0 384 l 25
 128 384 l 25
 128 640 l 25
 256 640 l 25
 256 512 l 25
 384 512 l 25
 384 384 l 25
 256 384 l 25
 256 256 l 25
 0 256 l 25
EndSplineSet
EndChar

StartChar: 0025
Encoding: 37 37 37
Width: 640
Flags: HMW
LayerCount: 2
Fore
SplineSet
0 128 m 25
 0 256 l 25
 128 256 l 25
 128 128 l 25
 0 128 l 25
384 128 m 25
 384 256 l 25
 512 256 l 25
 512 128 l 25
 384 128 l 25
128 256 m 25
 128 384 l 25
 256 384 l 25
 256 256 l 25
 128 256 l 25
256 384 m 25
 256 512 l 25
 384 512 l 25
 384 384 l 25
 256 384 l 25
0 512 m 25
 0 640 l 25
 128 640 l 25
 128 512 l 25
 0 512 l 25
384 512 m 25
 384 640 l 25
 512 640 l 25
 512 512 l 25
 384 512 l 25
EndSplineSet
EndChar

StartChar: 0026
Encoding: 38 38 38
Width: 640
Flags: HMW
LayerCount: 2
Fore
SplineSet
128 0 m 25
 128 128 l 25
 256 128 l 25
 256 0 l 25
 128 0 l 25
384 0 m 25
 384 128 l 25
 512 128 l 25
 512 0 l 25
 384 0 l 25
0 128 m 25
 0 256 l 25
 128 256 l 25
 128 128 l 25
 0 128 l 25
256 128 m 25
 256 256 l 25
 384 256 l 25
 384 128 l 25
 256 128 l 25
128 256 m 25
 128 384 l 25
 256 384 l 25
 256 256 l 25
 128 256 l 25
0 384 m 25
 0 512 l 25
 128 512 l 25
 128 384 l 25
 0 384 l 25
256 384 m 25
 256 512 l 25
 384 512 l 25
 384 384 l 25
 256 384 l 25
128 512 m 25
 128 640 l 25
 256 640 l 25
 256 512 l 25
 128 512 l 25
EndSplineSet
EndChar

StartChar: 0027
Encoding: 39 39 39
Width: 256
Flags: HMW
LayerCount: 2
Fore
SplineSet
0 384 m 25
 0 640 l 25
 128 640 l 25
 128 384 l 25
 0 384 l 25
EndSplineSet
EndChar

StartChar: 0028
Encoding: 40 40 40
Width: 384
Flags: HMW
LayerCount: 2
Fore
SplineSet
128 0 m 25
 128 128 l 25
 256 128 l 25
 256 0 l 25
 128 0 l 25
0 128 m 25
 0 512 l 25
 128 512 l 25
 128 128 l 25
 0 128 l 25
128 512 m 25
 128 640 l 25
 256 640 l 25
 256 512 l 25
 128 512 l 25
EndSplineSet
EndChar

StartChar: 0029
Encoding: 41 41 41
Width: 384
Flags: HMW
LayerCount: 2
Fore
SplineSet
0 0 m 25
 0 128 l 25
 128 128 l 25
 128 0 l 25
 0 0 l 25
128 128 m 25
 128 512 l 25
 256 512 l 25
 256 128 l 25
 128 128 l 25
0 512 m 25
 0 640 l 25
 128 640 l 25
 128 512 l 25
 0 512 l 25
EndSplineSet
EndChar

StartChar: 002a
Encoding: 42 42 42
Width: 512
Flags: HMW
LayerCount: 2
Fore
SplineSet
0 128 m 25
 0 256 l 25
 128 256 l 25
 128 128 l 25
 0 128 l 25
256 128 m 25
 256 256 l 25
 384 256 l 25
 384 128 l 25
 256 128 l 25
128 256 m 25
 128 384 l 25
 0 384 l 25
 0 512 l 25
 128 512 l 25
 128 640 l 25
 256 640 l 25
 256 512 l 25
 384 512 l 25
 384 384 l 25
 256 384 l 25
 256 256 l 25
 128 256 l 25
EndSplineSet
EndChar

StartChar: 002b
Encoding: 43 43 43
Width: 512
Flags: HMW
LayerCount: 2
Fore
SplineSet
128 128 m 25
 128 256 l 25
 0 256 l 25
 0 384 l 25
 128 384 l 25
 128 512 l 25
 256 512 l 25
 256 384 l 25
 384 384 l 25
 384 256 l 25
 256 256 l 25
 256 128 l 25
 128 128 l 25
EndSplineSet
EndChar

StartChar: 002c
Encoding: 44 44 44
Width: 384
Flags: HMW
LayerCount: 2
Fore
SplineSet
0 -128 m 25
 0 0 l 25
 128 0 l 25
 128 -128 l 25
 0 -128 l 25
128 0 m 25
 128 128 l 25
 256 128 l 25
 256 0 l 25
 128 0 l 25
EndSplineSet
EndChar

StartChar: 002d
Encoding: 45 45 45
Width: 512
Flags: HMW
LayerCount: 2
Fore
SplineSet
0 256 m 25
 0 384 l 25
 384 384 l 25
 384 256 l 25
 0 256 l 25
EndSplineSet
EndChar

StartChar: 002e
Encoding: 46 46 46
Width: 256
Flags: HMW
LayerCount: 2
Fore
SplineSet
0 0 m 25
 0 128 l 25
 128 128 l 25
 128 0 l 25
 0 0 l 25
EndSplineSet
EndChar

StartChar: 002f
Encoding: 47 47 47
Width: 384
Flags: HMW
LayerCount: 2
Fore
SplineSet
0 0 m 25
 0 384 l 25
 128 384 l 25
 128 0 l 25
 0 0 l 25
128 384 m 25
 128 640 l 25
 256 640 l 25
 256 384 l 25
 128 384 l 25
EndSplineSet
EndChar

StartChar: 0030
Encoding: 48 48 48
Width: 512
Flags: HMW
LayerCount: 2
Fore
SplineSet
128 0 m 25
 128 128 l 25
 256 128 l 25
 256 0 l 25
 128 0 l 25
0 128 m 25
 0 512 l 25
 128 512 l 25
 128 128 l 25
 0 128 l 25
256 128 m 25
 256 512 l 25
 384 512 l 25
 384 128 l 25
 256 128 l 25
128 512 m 25
 128 640 l 25
 256 640 l 25
 256 512 l 25
 128 512 l 25
EndSplineSet
EndChar

StartChar: 0031
Encoding: 49 49 49
Width: 512
Flags: HMW
LayerCount: 2
Fore
SplineSet
128 0 m 25
 128 384 l 25
 0 384 l 25
 0 512 l 25
 128 512 l 25
 128 640 l 25
 256 640 l 25
 256 0 l 25
 128 0 l 25
EndSplineSet
EndChar

StartChar: 0032
Encoding: 50 50 50
Width: 512
Flags: HMW
LayerCount: 2
Fore
SplineSet
0 0 m 25
 0 256 l 25
 128 256 l 25
 128 128 l 25
 384 128 l 25
 384 0 l 25
 0 0 l 25
128 256 m 25
 128 384 l 25
 256 384 l 25
 256 256 l 25
 128 256 l 25
256 384 m 25
 256 512 l 25
 384 512 l 25
 384 384 l 25
 256 384 l 25
0 512 m 25
 0 640 l 25
 256 640 l 25
 256 512 l 25
 0 512 l 25
EndSplineSet
EndChar

StartChar: 0033
Encoding: 51 51 51
Width: 512
Flags: HMW
LayerCount: 2
Fore
SplineSet
0 0 m 25
 0 128 l 25
 256 128 l 25
 256 0 l 25
 0 0 l 25
256 128 m 25
 256 256 l 25
 384 256 l 25
 384 128 l 25
 256 128 l 25
128 256 m 25
 128 384 l 25
 256 384 l 25
 256 256 l 25
 128 256 l 25
256 384 m 25
 256 512 l 25
 384 512 l 25
 384 384 l 25
 256 384 l 25
0 512 m 25
 0 640 l 25
 256 640 l 25
 256 512 l 25
 0 512 l 25
EndSplineSet
EndChar

StartChar: 0034
Encoding: 52 52 52
Width: 512
Flags: HMW
LayerCount: 2
Fore
SplineSet
256 0 m 25
 256 128 l 25
 0 128 l 25
 0 384 l 25
 128 384 l 25
 128 256 l 25
 256 256 l 25
 256 384 l 25
 128 384 l 25
 128 512 l 25
 256 512 l 25
 256 640 l 25
 384 640 l 25
 384 0 l 25
 256 0 l 25
EndSplineSet
EndChar

StartChar: 0035
Encoding: 53 53 53
Width: 512
Flags: HMW
LayerCount: 2
Fore
SplineSet
0 0 m 25
 0 128 l 25
 256 128 l 25
 256 0 l 25
 0 0 l 25
256 128 m 25
 256 256 l 25
 384 256 l 25
 384 128 l 25
 256 128 l 25
0 256 m 25
 0 640 l 25
 384 640 l 25
 384 512 l 25
 128 512 l 25
 128 384 l 25
 256 384 l 25
 256 256 l 25
 0 256 l 25
EndSplineSet
EndChar

StartChar: 0036
Encoding: 54 54 54
Width: 512
Flags: HMW
LayerCount: 2
Fore
SplineSet
128 0 m 25
 128 128 l 25
 256 128 l 25
 256 0 l 25
 128 0 l 25
0 128 m 25
 0 512 l 25
 128 512 l 25
 128 384 l 25
 256 384 l 25
 256 256 l 25
 128 256 l 25
 128 128 l 25
 0 128 l 25
256 128 m 25
 256 256 l 25
 384 256 l 25
 384 128 l 25
 256 128 l 25
128 512 m 25
 128 640 l 25
 384 640 l 25
 384 512 l 25
 128 512 l 25
EndSplineSet
EndChar

StartChar: 0037
Encoding: 55 55 55
Width: 512
Flags: HMW
LayerCount: 2
Fore
SplineSet
128 0 m 25
 128 384 l 25
 256 384 l 25
 256 0 l 25
 128 0 l 25
256 384 m 25
 256 512 l 25
 0 512 l 25
 0 640 l 25
 384 640 l 25
 384 384 l 25
 256 384 l 25
EndSplineSet
EndChar

StartChar: 0038
Encoding: 56 56 56
Width: 512
Flags: HMW
LayerCount: 2
Fore
SplineSet
128 0 m 25
 128 128 l 25
 256 128 l 25
 256 0 l 25
 128 0 l 25
0 128 m 25
 0 256 l 25
 128 256 l 25
 128 128 l 25
 0 128 l 25
256 128 m 25
 256 256 l 25
 384 256 l 25
 384 128 l 25
 256 128 l 25
128 256 m 25
 128 384 l 25
 256 384 l 25
 256 256 l 25
 128 256 l 25
0 384 m 25
 0 512 l 25
 128 512 l 25
 128 384 l 25
 0 384 l 25
256 384 m 25
 256 512 l 25
 384 512 l 25
 384 384 l 25
 256 384 l 25
128 512 m 25
 128 640 l 25
 256 640 l 25
 256 512 l 25
 128 512 l 25
EndSplineSet
EndChar

StartChar: 0039
Encoding: 57 57 57
Width: 512
Flags: HMW
LayerCount: 2
Fore
SplineSet
0 0 m 25
 0 128 l 25
 256 128 l 25
 256 0 l 25
 0 0 l 25
256 128 m 25
 256 256 l 25
 128 256 l 25
 128 384 l 25
 256 384 l 25
 256 512 l 25
 384 512 l 25
 384 128 l 25
 256 128 l 25
0 384 m 25
 0 512 l 25
 128 512 l 25
 128 384 l 25
 0 384 l 25
128 512 m 25
 128 640 l 25
 256 640 l 25
 256 512 l 25
 128 512 l 25
EndSplineSet
EndChar

StartChar: 003a
Encoding: 58 58 58
Width: 256
Flags: HMW
LayerCount: 2
Fore
SplineSet
0 0 m 25
 0 128 l 25
 128 128 l 25
 128 0 l 25
 0 0 l 25
0 384 m 25
 0 512 l 25
 128 512 l 25
 128 384 l 25
 0 384 l 25
EndSplineSet
EndChar

StartChar: 003b
Encoding: 59 59 59
Width: 384
Flags: HMW
LayerCount: 2
Fore
SplineSet
0 -128 m 25
 0 0 l 25
 128 0 l 25
 128 -128 l 25
 0 -128 l 25
128 0 m 25
 128 128 l 25
 256 128 l 25
 256 0 l 25
 128 0 l 25
128 384 m 25
 128 512 l 25
 256 512 l 25
 256 384 l 25
 128 384 l 25
EndSplineSet
EndChar

StartChar: 003c
Encoding: 60 60 60
Width: 512
Flags: HMW
LayerCount: 2
Fore
SplineSet
256 0 m 25
 256 128 l 25
 384 128 l 25
 384 0 l 25
 256 0 l 25
128 128 m 25
 128 256 l 25
 256 256 l 25
 256 128 l 25
 128 128 l 25
0 256 m 25
 0 384 l 25
 128 384 l 25
 128 256 l 25
 0 256 l 25
128 384 m 25
 128 512 l 25
 256 512 l 25
 256 384 l 25
 128 384 l 25
256 512 m 25
 256 640 l 25
 384 640 l 25
 384 512 l 25
 256 512 l 25
EndSplineSet
EndChar

StartChar: 003d
Encoding: 61 61 61
Width: 512
Flags: HMW
LayerCount: 2
Fore
SplineSet
0 128 m 25
 0 256 l 25
 384 256 l 25
 384 128 l 25
 0 128 l 25
0 384 m 25
 0 512 l 25
 384 512 l 25
 384 384 l 25
 0 384 l 25
EndSplineSet
EndChar

StartChar: 003e
Encoding: 62 62 62
Width: 512
Flags: HMW
LayerCount: 2
Fore
SplineSet
0 0 m 25
 0 128 l 25
 128 128 l 25
 128 0 l 25
 0 0 l 25
128 128 m 25
 128 256 l 25
 256 256 l 25
 256 128 l 25
 128 128 l 25
256 256 m 25
 256 384 l 25
 384 384 l 25
 384 256 l 25
 256 256 l 25
128 384 m 25
 128 512 l 25
 256 512 l 25
 256 384 l 25
 128 384 l 25
0 512 m 25
 0 640 l 25
 128 640 l 25
 128 512 l 25
 0 512 l 25
EndSplineSet
EndChar

StartChar: 003f
Encoding: 63 63 63
Width: 512
Flags: HMW
LayerCount: 2
Fore
SplineSet
128 0 m 25
 128 128 l 25
 256 128 l 25
 256 0 l 25
 128 0 l 25
128 256 m 25
 128 384 l 25
 256 384 l 25
 256 256 l 25
 128 256 l 25
256 384 m 25
 256 512 l 25
 384 512 l 25
 384 384 l 25
 256 384 l 25
0 512 m 25
 0 640 l 25
 256 640 l 25
 256 512 l 25
 0 512 l 25
EndSplineSet
EndChar

StartChar: 0040
Encoding: 64 64 64
Width: 640
Flags: HMW
LayerCount: 2
Fore
SplineSet
128 0 m 25
 128 128 l 25
 384 128 l 25
 384 0 l 25
 128 0 l 25
0 128 m 25
 0 512 l 25
 128 512 l 25
 128 128 l 25
 0 128 l 25
256 256 m 25
 256 384 l 25
 384 384 l 25
 384 512 l 25
 512 512 l 25
 512 256 l 25
 256 256 l 25
128 512 m 25
 128 640 l 25
 384 640 l 25
 384 512 l 25
 128 512 l 25
EndSplineSet
EndChar

StartChar: 0041
Encoding: 65 65 65
Width: 640
Flags: HMW
LayerCount: 2
Fore
SplineSet
0 0 m 25
 0 512 l 25
 128 512 l 25
 128 384 l 25
 384 384 l 25
 384 512 l 25
 512 512 l 25
 512 0 l 25
 384 0 l 25
 384 256 l 25
 128 256 l 25
 128 0 l 25
 0 0 l 25
128 512 m 25
 128 640 l 25
 384 640 l 25
 384 512 l 25
 128 512 l 25
EndSplineSet
EndChar

StartChar: 0042
Encoding: 66 66 66
Width: 640
Flags: HMW
LayerCount: 2
Fore
SplineSet
0 0 m 25
 0 640 l 25
 384 640 l 25
 384 512 l 25
 128 512 l 25
 128 384 l 25
 384 384 l 25
 384 256 l 25
 128 256 l 25
 128 128 l 25
 384 128 l 25
 384 0 l 25
 0 0 l 25
384 128 m 25
 384 256 l 25
 512 256 l 25
 512 128 l 25
 384 128 l 25
384 384 m 25
 384 512 l 25
 512 512 l 25
 512 384 l 25
 384 384 l 25
EndSplineSet
EndChar

StartChar: 0043
Encoding: 67 67 67
Width: 640
Flags: HMW
LayerCount: 2
Fore
SplineSet
128 0 m 25
 128 128 l 25
 384 128 l 25
 384 0 l 25
 128 0 l 25
0 128 m 25
 0 512 l 25
 128 512 l 25
 128 128 l 25
 0 128 l 25
384 128 m 25
 384 256 l 25
 512 256 l 25
 512 128 l 25
 384 128 l 25
384 384 m 25
 384 512 l 25
 512 512 l 25
 512 384 l 25
 384 384 l 25
128 512 m 25
 128 640 l 25
 384 640 l 25
 384 512 l 25
 128 512 l 25
EndSplineSet
EndChar

StartChar: 0044
Encoding: 68 68 68
Width: 640
Flags: HMW
LayerCount: 2
Fore
SplineSet
0 0 m 25
 0 640 l 25
 384 640 l 25
 384 512 l 25
 128 512 l 25
 128 128 l 25
 384 128 l 25
 384 0 l 25
 0 0 l 25
384 128 m 25
 384 512 l 25
 512 512 l 25
 512 128 l 25
 384 128 l 25
EndSplineSet
EndChar

StartChar: 0045
Encoding: 69 69 69
Width: 640
Flags: HMW
LayerCount: 2
Fore
SplineSet
0 0 m 25
 0 640 l 25
 512 640 l 25
 512 512 l 25
 128 512 l 25
 128 384 l 25
 384 384 l 25
 384 256 l 25
 128 256 l 25
 128 128 l 25
 512 128 l 25
 512 0 l 25
 0 0 l 25
EndSplineSet
EndChar

StartChar: 0046
Encoding: 70 70 70
Width: 640
Flags: HMW
LayerCount: 2
Fore
SplineSet
0 0 m 25
 0 640 l 25
 512 640 l 25
 512 512 l 25
 128 512 l 25
 128 384 l 25
 384 384 l 25
 384 256 l 25
 128 256 l 25
 128 0 l 25
 0 0 l 25
EndSplineSet
EndChar

StartChar: 0047
Encoding: 71 71 71
Width: 640
Flags: HMW
LayerCount: 2
Fore
SplineSet
128 0 m 25
 128 128 l 25
 384 128 l 25
 384 256 l 25
 256 256 l 25
 256 384 l 25
 512 384 l 25
 512 0 l 25
 128 0 l 25
0 128 m 25
 0 512 l 25
 128 512 l 25
 128 128 l 25
 0 128 l 25
128 512 m 25
 128 640 l 25
 512 640 l 25
 512 512 l 25
 128 512 l 25
EndSplineSet
EndChar

StartChar: 0048
Encoding: 72 72 72
Width: 640
Flags: HMW
LayerCount: 2
Fore
SplineSet
0 0 m 25
 0 640 l 25
 128 640 l 25
 128 384 l 25
 384 384 l 25
 384 640 l 25
 512 640 l 25
 512 0 l 25
 384 0 l 25
 384 256 l 25
 128 256 l 25
 128 0 l 25
 0 0 l 25
EndSplineSet
EndChar

StartChar: 0049
Encoding: 73 73 73
Width: 256
Flags: HMW
LayerCount: 2
Fore
SplineSet
0 0 m 25
 0 640 l 25
 128 640 l 25
 128 0 l 25
 0 0 l 25
EndSplineSet
EndChar

StartChar: 004a
Encoding: 74 74 74
Width: 512
Flags: HMW
LayerCount: 2
Fore
SplineSet
128 0 m 25
 128 128 l 25
 256 128 l 25
 256 0 l 25
 128 0 l 25
0 128 m 25
 0 256 l 25
 128 256 l 25
 128 128 l 25
 0 128 l 25
256 128 m 25
 256 640 l 25
 384 640 l 25
 384 128 l 25
 256 128 l 25
EndSplineSet
EndChar

StartChar: 004b
Encoding: 75 75 75
Width: 640
Flags: HMW
LayerCount: 2
Fore
SplineSet
0 0 m 25
 0 640 l 25
 128 640 l 25
 128 384 l 25
 256 384 l 25
 256 256 l 25
 128 256 l 25
 128 0 l 25
 0 0 l 25
384 0 m 25
 384 128 l 25
 512 128 l 25
 512 0 l 25
 384 0 l 25
256 128 m 25
 256 256 l 25
 384 256 l 25
 384 128 l 25
 256 128 l 25
256 384 m 25
 256 512 l 25
 384 512 l 25
 384 384 l 25
 256 384 l 25
384 512 m 25
 384 640 l 25
 512 640 l 25
 512 512 l 25
 384 512 l 25
EndSplineSet
EndChar

StartChar: 004c
Encoding: 76 76 76
Width: 512
Flags: HMW
LayerCount: 2
Fore
SplineSet
0 0 m 25
 0 640 l 25
 128 640 l 25
 128 128 l 25
 384 128 l 25
 384 0 l 25
 0 0 l 25
EndSplineSet
EndChar

StartChar: 004d
Encoding: 77 77 77
Width: 768
Flags: HMW
LayerCount: 2
Fore
SplineSet
0 0 m 25
 0 640 l 25
 128 640 l 25
 128 512 l 25
 256 512 l 25
 256 384 l 25
 128 384 l 25
 128 0 l 25
 0 0 l 25
512 0 m 25
 512 384 l 25
 384 384 l 25
 384 512 l 25
 512 512 l 25
 512 640 l 25
 640 640 l 25
 640 0 l 25
 512 0 l 25
256 256 m 25
 256 384 l 25
 384 384 l 25
 384 256 l 25
 256 256 l 25
EndSplineSet
EndChar

StartChar: 004e
Encoding: 78 78 78
Width: 640
Flags: HMW
LayerCount: 2
Fore
SplineSet
0 0 m 25
 0 640 l 25
 128 640 l 25
 128 512 l 25
 256 512 l 25
 256 384 l 25
 128 384 l 25
 128 0 l 25
 0 0 l 25
384 0 m 25
 384 256 l 25
 256 256 l 25
 256 384 l 25
 384 384 l 25
 384 640 l 25
 512 640 l 25
 512 0 l 25
 384 0 l 25
EndSplineSet
EndChar

StartChar: 004f
Encoding: 79 79 79
Width: 640
Flags: HMW
LayerCount: 2
Fore
SplineSet
128 0 m 25
 128 128 l 25
 384 128 l 25
 384 0 l 25
 128 0 l 25
0 128 m 25
 0 512 l 25
 128 512 l 25
 128 128 l 25
 0 128 l 25
384 128 m 25
 384 512 l 25
 512 512 l 25
 512 128 l 25
 384 128 l 25
128 512 m 25
 128 640 l 25
 384 640 l 25
 384 512 l 25
 128 512 l 25
EndSplineSet
EndChar

StartChar: 0050
Encoding: 80 80 80
Width: 640
Flags: HMW
LayerCount: 2
Fore
SplineSet
0 0 m 25
 0 640 l 25
 384 640 l 25
 384 512 l 25
 128 512 l 25
 128 384 l 25
 384 384 l 25
 384 256 l 25
 128 256 l 25
 128 0 l 25
 0 0 l 25
384 384 m 25
 384 512 l 25
 512 512 l 25
 512 384 l 25
 384 384 l 25
EndSplineSet
EndChar

StartChar: 0051
Encoding: 81 81 81
Width: 640
Flags: HMW
LayerCount: 2
Fore
SplineSet
128 0 m 25
 128 128 l 25
 256 128 l 25
 256 0 l 25
 128 0 l 25
384 0 m 25
 384 128 l 25
 512 128 l 25
 512 0 l 25
 384 0 l 25
0 128 m 25
 0 512 l 25
 128 512 l 25
 128 128 l 25
 0 128 l 25
256 128 m 25
 256 256 l 25
 384 256 l 25
 384 128 l 25
 256 128 l 25
384 256 m 25
 384 512 l 25
 512 512 l 25
 512 256 l 25
 384 256 l 25
128 512 m 25
 128 640 l 25
 384 640 l 25
 384 512 l 25
 128 512 l 25
EndSplineSet
EndChar

StartChar: 0052
Encoding: 82 82 82
Width: 640
Flags: HMW
LayerCount: 2
Fore
SplineSet
0 0 m 25
 0 640 l 25
 384 640 l 25
 384 512 l 25
 128 512 l 25
 128 384 l 25
 384 384 l 25
 384 256 l 25
 128 256 l 25
 128 0 l 25
 0 0 l 25
384 0 m 25
 384 256 l 25
 512 256 l 25
 512 0 l 25
 384 0 l 25
384 384 m 25
 384 512 l 25
 512 512 l 25
 512 384 l 25
 384 384 l 25
EndSplineSet
EndChar

StartChar: 0053
Encoding: 83 83 83
Width: 640
Flags: HMW
LayerCount: 2
Fore
SplineSet
0 0 m 25
 0 128 l 25
 384 128 l 25
 384 0 l 25
 0 0 l 25
384 128 m 25
 384 256 l 25
 512 256 l 25
 512 128 l 25
 384 128 l 25
128 256 m 25
 128 384 l 25
 384 384 l 25
 384 256 l 25
 128 256 l 25
0 384 m 25
 0 512 l 25
 128 512 l 25
 128 384 l 25
 0 384 l 25
128 512 m 25
 128 640 l 25
 512 640 l 25
 512 512 l 25
 128 512 l 25
EndSplineSet
EndChar

StartChar: 0054
Encoding: 84 84 84
Width: 512
Flags: HMW
LayerCount: 2
Fore
SplineSet
128 0 m 25
 128 512 l 25
 0 512 l 25
 0 640 l 25
 384 640 l 25
 384 512 l 25
 256 512 l 25
 256 0 l 25
 128 0 l 25
EndSplineSet
EndChar

StartChar: 0055
Encoding: 85 85 85
Width: 640
Flags: HMW
LayerCount: 2
Fore
SplineSet
128 0 m 25
 128 128 l 25
 384 128 l 25
 384 0 l 25
 128 0 l 25
0 128 m 25
 0 640 l 25
 128 640 l 25
 128 128 l 25
 0 128 l 25
384 128 m 25
 384 640 l 25
 512 640 l 25
 512 128 l 25
 384 128 l 25
EndSplineSet
EndChar

StartChar: 0056
Encoding: 86 86 86
Width: 512
Flags: HMW
LayerCount: 2
Fore
SplineSet
128 0 m 25
 128 256 l 25
 256 256 l 25
 256 0 l 25
 128 0 l 25
0 256 m 25
 0 640 l 25
 128 640 l 25
 128 256 l 25
 0 256 l 25
256 256 m 25
 256 640 l 25
 384 640 l 25
 384 256 l 25
 256 256 l 25
EndSplineSet
EndChar

StartChar: 0057
Encoding: 87 87 87
Width: 768
Flags: HMW
LayerCount: 2
Fore
SplineSet
128 0 m 25
 128 256 l 25
 256 256 l 25
 256 0 l 25
 128 0 l 25
384 0 m 25
 384 256 l 25
 512 256 l 25
 512 0 l 25
 384 0 l 25
0 256 m 25
 0 640 l 25
 128 640 l 25
 128 256 l 25
 0 256 l 25
256 256 m 25
 256 640 l 25
 384 640 l 25
 384 256 l 25
 256 256 l 25
512 256 m 25
 512 640 l 25
 640 640 l 25
 640 256 l 25
 512 256 l 25
EndSplineSet
EndChar

StartChar: 0058
Encoding: 88 88 88
Width: 512
Flags: HMW
LayerCount: 2
Fore
SplineSet
0 0 m 25
 0 256 l 25
 128 256 l 25
 128 0 l 25
 0 0 l 25
256 0 m 25
 256 256 l 25
 384 256 l 25
 384 0 l 25
 256 0 l 25
128 256 m 25
 128 384 l 25
 256 384 l 25
 256 256 l 25
 128 256 l 25
0 384 m 25
 0 640 l 25
 128 640 l 25
 128 384 l 25
 0 384 l 25
256 384 m 25
 256 640 l 25
 384 640 l 25
 384 384 l 25
 256 384 l 25
EndSplineSet
EndChar

StartChar: 0059
Encoding: 89 89 89
Width: 512
Flags: HMW
LayerCount: 2
Fore
SplineSet
128 0 m 25
 128 384 l 25
 256 384 l 25
 256 0 l 25
 128 0 l 25
0 384 m 25
 0 640 l 25
 128 640 l 25
 128 384 l 25
 0 384 l 25
256 384 m 25
 256 640 l 25
 384 640 l 25
 384 384 l 25
 256 384 l 25
EndSplineSet
EndChar

StartChar: 005a
Encoding: 90 90 90
Width: 512
Flags: HMW
LayerCount: 2
Fore
SplineSet
0 0 m 25
 0 256 l 25
 128 256 l 25
 128 128 l 25
 384 128 l 25
 384 0 l 25
 0 0 l 25
128 256 m 25
 128 384 l 25
 256 384 l 25
 256 256 l 25
 128 256 l 25
256 384 m 25
 256 512 l 25
 0 512 l 25
 0 640 l 25
 384 640 l 25
 384 384 l 25
 256 384 l 25
EndSplineSet
EndChar

StartChar: 005b
Encoding: 91 91 91
Width: 384
Flags: HMW
LayerCount: 2
Fore
SplineSet
0 0 m 25
 0 640 l 25
 256 640 l 25
 256 512 l 25
 128 512 l 25
 128 128 l 25
 256 128 l 25
 256 0 l 25
 0 0 l 25
EndSplineSet
EndChar

StartChar: 005c
Encoding: 92 92 92
Width: 384
Flags: HMW
LayerCount: 2
Fore
SplineSet
128 0 m 25
 128 384 l 25
 256 384 l 25
 256 0 l 25
 128 0 l 25
0 384 m 25
 0 640 l 25
 128 640 l 25
 128 384 l 25
 0 384 l 25
EndSplineSet
EndChar

StartChar: 005d
Encoding: 93 93 93
Width: 384
Flags: HMW
LayerCount: 2
Fore
SplineSet
0 0 m 25
 0 128 l 25
 128 128 l 25
 128 512 l 25
 0 512 l 25
 0 640 l 25
 256 640 l 25
 256 0 l 25
 0 0 l 25
EndSplineSet
EndChar

StartChar: 005e
Encoding: 94 94 94
Width: 512
Flags: HMW
LayerCount: 2
Fore
SplineSet
0 384 m 25
 0 512 l 25
 128 512 l 25
 128 384 l 25
 0 384 l 25
256 384 m 25
 256 512 l 25
 384 512 l 25
 384 384 l 25
 256 384 l 25
128 512 m 25
 128 640 l 25
 256 640 l 25
 256 512 l 25
 128 512 l 25
EndSplineSet
EndChar

StartChar: 005f
Encoding: 95 95 95
Width: 512
Flags: HMW
LayerCount: 2
Fore
SplineSet
0 0 m 25
 0 128 l 25
 384 128 l 25
 384 0 l 25
 0 0 l 25
EndSplineSet
EndChar

StartChar: 0060
Encoding: 96 96 96
Width: 384
Flags: HMW
LayerCount: 2
Fore
SplineSet
128 384 m 25
 128 512 l 25
 256 512 l 25
 256 384 l 25
 128 384 l 25
0 512 m 25
 0 640 l 25
 128 640 l 25
 128 512 l 25
 0 512 l 25
EndSplineSet
EndChar

StartChar: 0061
Encoding: 97 97 97
Width: 512
Flags: HMW
LayerCount: 2
Fore
SplineSet
128 0 m 25
 128 128 l 25
 256 128 l 25
 256 384 l 25
 128 384 l 25
 128 512 l 25
 384 512 l 25
 384 0 l 25
 128 0 l 25
0 128 m 25
 0 384 l 25
 128 384 l 25
 128 128 l 25
 0 128 l 25
EndSplineSet
EndChar

StartChar: 0062
Encoding: 98 98 98
Width: 512
Flags: HMW
LayerCount: 2
Fore
SplineSet
0 0 m 25
 0 640 l 25
 128 640 l 25
 128 512 l 25
 256 512 l 25
 256 384 l 25
 128 384 l 25
 128 128 l 25
 256 128 l 25
 256 0 l 25
 0 0 l 25
256 128 m 25
 256 384 l 25
 384 384 l 25
 384 128 l 25
 256 128 l 25
EndSplineSet
EndChar

StartChar: 0063
Encoding: 99 99 99
Width: 512
Flags: HMW
LayerCount: 2
Fore
SplineSet
128 0 m 25
 128 128 l 25
 384 128 l 25
 384 0 l 25
 128 0 l 25
0 128 m 25
 0 384 l 25
 128 384 l 25
 128 128 l 25
 0 128 l 25
128 384 m 25
 128 512 l 25
 384 512 l 25
 384 384 l 25
 128 384 l 25
EndSplineSet
EndChar

StartChar: 0064
Encoding: 100 100 100
Width: 512
Flags: HMW
LayerCount: 2
Fore
SplineSet
128 0 m 25
 128 128 l 25
 256 128 l 25
 256 384 l 25
 128 384 l 25
 128 512 l 25
 256 512 l 25
 256 640 l 25
 384 640 l 25
 384 0 l 25
 128 0 l 25
0 128 m 25
 0 384 l 25
 128 384 l 25
 128 128 l 25
 0 128 l 25
EndSplineSet
EndChar

StartChar: 0065
Encoding: 101 101 101
Width: 512
Flags: HMW
LayerCount: 2
Fore
SplineSet
128 0 m 25
 128 128 l 25
 384 128 l 25
 384 0 l 25
 128 0 l 25
0 128 m 25
 0 384 l 25
 128 384 l 25
 128 512 l 25
 256 512 l 25
 256 384 l 25
 384 384 l 25
 384 256 l 25
 128 256 l 25
 128 128 l 25
 0 128 l 25
EndSplineSet
EndChar

StartChar: 0066
Encoding: 102 102 102
Width: 384
Flags: HMW
LayerCount: 2
Fore
SplineSet
0 0 m 25
 0 512 l 25
 128 512 l 25
 128 384 l 25
 256 384 l 25
 256 256 l 25
 128 256 l 25
 128 0 l 25
 0 0 l 25
128 512 m 25
 128 640 l 25
 256 640 l 25
 256 512 l 25
 128 512 l 25
EndSplineSet
EndChar

StartChar: 0067
Encoding: 103 103 103
Width: 512
Flags: HMW
LayerCount: 2
Fore
SplineSet
0 -128 m 25
 0 0 l 25
 128 0 l 25
 128 128 l 25
 256 128 l 25
 256 384 l 25
 128 384 l 25
 128 512 l 25
 384 512 l 25
 384 0 l 25
 256 0 l 25
 256 -128 l 25
 0 -128 l 25
0 128 m 25
 0 384 l 25
 128 384 l 25
 128 128 l 25
 0 128 l 25
EndSplineSet
EndChar

StartChar: 0068
Encoding: 104 104 104
Width: 512
Flags: HMW
LayerCount: 2
Fore
SplineSet
0 0 m 25
 0 640 l 25
 128 640 l 25
 128 512 l 25
 256 512 l 25
 256 384 l 25
 128 384 l 25
 128 0 l 25
 0 0 l 25
256 0 m 25
 256 384 l 25
 384 384 l 25
 384 0 l 25
 256 0 l 25
EndSplineSet
EndChar

StartChar: 0069
Encoding: 105 105 105
Width: 256
Flags: HMW
LayerCount: 2
Fore
SplineSet
0 0 m 25
 0 512 l 25
 128 512 l 25
 128 0 l 25
 0 0 l 25
0 640 m 25
 0 768 l 25
 128 768 l 25
 128 640 l 25
 0 640 l 25
EndSplineSet
EndChar

StartChar: 006a
Encoding: 106 106 106
Width: 256
Flags: HMW
LayerCount: 2
Fore
SplineSet
0 -128 m 25
 0 512 l 25
 128 512 l 25
 128 -128 l 25
 0 -128 l 25
0 640 m 25
 0 768 l 25
 128 768 l 25
 128 640 l 25
 0 640 l 25
EndSplineSet
EndChar

StartChar: 006b
Encoding: 107 107 107
Width: 512
Flags: HMW
LayerCount: 2
Fore
SplineSet
0 0 m 25
 0 640 l 25
 128 640 l 25
 128 384 l 25
 256 384 l 25
 256 256 l 25
 128 256 l 25
 128 0 l 25
 0 0 l 25
256 0 m 25
 256 256 l 25
 384 256 l 25
 384 0 l 25
 256 0 l 25
256 384 m 25
 256 512 l 25
 384 512 l 25
 384 384 l 25
 256 384 l 25
EndSplineSet
EndChar

StartChar: 006c
Encoding: 108 108 108
Width: 256
Flags: HMW
LayerCount: 2
Fore
SplineSet
0 0 m 25
 0 640 l 25
 128 640 l 25
 128 0 l 25
 0 0 l 25
EndSplineSet
EndChar

StartChar: 006d
Encoding: 109 109 109
Width: 768
Flags: HMW
LayerCount: 2
Fore
SplineSet
0 0 m 25
 0 512 l 25
 512 512 l 25
 512 384 l 25
 384 384 l 25
 384 0 l 25
 256 0 l 25
 256 384 l 25
 128 384 l 25
 128 0 l 25
 0 0 l 25
512 0 m 25
 512 384 l 25
 640 384 l 25
 640 0 l 25
 512 0 l 25
EndSplineSet
EndChar

StartChar: 006e
Encoding: 110 110 110
Width: 512
Flags: HMW
LayerCount: 2
Fore
SplineSet
0 0 m 25
 0 512 l 25
 256 512 l 25
 256 384 l 25
 128 384 l 25
 128 0 l 25
 0 0 l 25
256 0 m 25
 256 384 l 25
 384 384 l 25
 384 0 l 25
 256 0 l 25
EndSplineSet
EndChar

StartChar: 006f
Encoding: 111 111 111
Width: 512
Flags: HMW
LayerCount: 2
Fore
SplineSet
128 0 m 25
 128 128 l 25
 256 128 l 25
 256 0 l 25
 128 0 l 25
0 128 m 25
 0 384 l 25
 128 384 l 25
 128 128 l 25
 0 128 l 25
256 128 m 25
 256 384 l 25
 384 384 l 25
 384 128 l 25
 256 128 l 25
128 384 m 25
 128 512 l 25
 256 512 l 25
 256 384 l 25
 128 384 l 25
EndSplineSet
EndChar

StartChar: 0070
Encoding: 112 112 112
Width: 512
Flags: HMW
LayerCount: 2
Fore
SplineSet
0 -128 m 25
 0 512 l 25
 256 512 l 25
 256 384 l 25
 128 384 l 25
 128 128 l 25
 256 128 l 25
 256 0 l 25
 128 0 l 25
 128 -128 l 25
 0 -128 l 25
256 128 m 25
 256 384 l 25
 384 384 l 25
 384 128 l 25
 256 128 l 25
EndSplineSet
EndChar

StartChar: 0071
Encoding: 113 113 113
Width: 512
Flags: HMW
LayerCount: 2
Fore
SplineSet
256 -128 m 25
 256 0 l 25
 128 0 l 25
 128 128 l 25
 256 128 l 25
 256 384 l 25
 128 384 l 25
 128 512 l 25
 384 512 l 25
 384 -128 l 25
 256 -128 l 25
0 128 m 25
 0 384 l 25
 128 384 l 25
 128 128 l 25
 0 128 l 25
EndSplineSet
EndChar

StartChar: 0072
Encoding: 114 114 114
Width: 384
Flags: HMW
LayerCount: 2
Fore
SplineSet
0 0 m 25
 0 512 l 25
 256 512 l 25
 256 384 l 25
 128 384 l 25
 128 0 l 25
 0 0 l 25
EndSplineSet
EndChar

StartChar: 0073
Encoding: 115 115 115
Width: 512
Flags: HMW
LayerCount: 2
Fore
SplineSet
0 0 m 25
 0 128 l 25
 256 128 l 25
 256 0 l 25
 0 0 l 25
256 128 m 25
 256 256 l 25
 384 256 l 25
 384 128 l 25
 256 128 l 25
0 256 m 25
 0 384 l 25
 128 384 l 25
 128 512 l 25
 384 512 l 25
 384 384 l 25
 256 384 l 25
 256 256 l 25
 0 256 l 25
EndSplineSet
EndChar

StartChar: 0074
Encoding: 116 116 116
Width: 384
Flags: HMW
LayerCount: 2
Fore
SplineSet
128 0 m 25
 128 128 l 25
 256 128 l 25
 256 0 l 25
 128 0 l 25
0 128 m 25
 0 640 l 25
 128 640 l 25
 128 512 l 25
 256 512 l 25
 256 384 l 25
 128 384 l 25
 128 128 l 25
 0 128 l 25
EndSplineSet
EndChar

StartChar: 0075
Encoding: 117 117 117
Width: 512
Flags: HMW
LayerCount: 2
Fore
SplineSet
128 0 m 25
 128 128 l 25
 256 128 l 25
 256 512 l 25
 384 512 l 25
 384 0 l 25
 128 0 l 25
0 128 m 25
 0 512 l 25
 128 512 l 25
 128 128 l 25
 0 128 l 25
EndSplineSet
EndChar

StartChar: 0076
Encoding: 118 118 118
Width: 512
Flags: HMW
LayerCount: 2
Fore
SplineSet
128 0 m 25
 128 128 l 25
 256 128 l 25
 256 0 l 25
 128 0 l 25
0 128 m 25
 0 512 l 25
 128 512 l 25
 128 128 l 25
 0 128 l 25
256 128 m 25
 256 512 l 25
 384 512 l 25
 384 128 l 25
 256 128 l 25
EndSplineSet
EndChar

StartChar: 0077
Encoding: 119 119 119
Width: 768
Flags: HMW
LayerCount: 2
Fore
SplineSet
128 0 m 25
 128 128 l 25
 256 128 l 25
 256 0 l 25
 128 0 l 25
384 0 m 25
 384 128 l 25
 512 128 l 25
 512 0 l 25
 384 0 l 25
0 128 m 25
 0 512 l 25
 128 512 l 25
 128 128 l 25
 0 128 l 25
256 128 m 25
 256 512 l 25
 384 512 l 25
 384 128 l 25
 256 128 l 25
512 128 m 25
 512 512 l 25
 640 512 l 25
 640 128 l 25
 512 128 l 25
EndSplineSet
EndChar

StartChar: 0078
Encoding: 120 120 120
Width: 512
Flags: HMW
LayerCount: 2
Fore
SplineSet
0 0 m 25
 0 128 l 25
 128 128 l 25
 128 0 l 25
 0 0 l 25
256 0 m 25
 256 128 l 25
 384 128 l 25
 384 0 l 25
 256 0 l 25
128 128 m 25
 128 384 l 25
 256 384 l 25
 256 128 l 25
 128 128 l 25
0 384 m 25
 0 512 l 25
 128 512 l 25
 128 384 l 25
 0 384 l 25
256 384 m 25
 256 512 l 25
 384 512 l 25
 384 384 l 25
 256 384 l 25
EndSplineSet
EndChar

StartChar: 0079
Encoding: 121 121 121
Width: 512
Flags: HMW
LayerCount: 2
Fore
SplineSet
0 -128 m 25
 0 0 l 25
 128 0 l 25
 128 -128 l 25
 0 -128 l 25
128 0 m 25
 128 128 l 25
 256 128 l 25
 256 0 l 25
 128 0 l 25
0 128 m 25
 0 512 l 25
 128 512 l 25
 128 128 l 25
 0 128 l 25
256 128 m 25
 256 512 l 25
 384 512 l 25
 384 128 l 25
 256 128 l 25
EndSplineSet
EndChar

StartChar: 007a
Encoding: 122 122 122
Width: 512
Flags: HMW
LayerCount: 2
Fore
SplineSet
0 0 m 25
 0 256 l 25
 128 256 l 25
 128 128 l 25
 384 128 l 25
 384 0 l 25
 0 0 l 25
128 256 m 25
 128 384 l 25
 0 384 l 25
 0 512 l 25
 384 512 l 25
 384 384 l 25
 256 384 l 25
 256 256 l 25
 128 256 l 25
EndSplineSet
EndChar

StartChar: 007b
Encoding: 123 123 123
Width: 512
Flags: HMW
LayerCount: 2
Fore
SplineSet
128 0 m 25
 128 256 l 25
 256 256 l 25
 256 128 l 25
 384 128 l 25
 384 0 l 25
 128 0 l 25
0 256 m 25
 0 384 l 25
 128 384 l 25
 128 256 l 25
 0 256 l 25
128 384 m 25
 128 640 l 25
 384 640 l 25
 384 512 l 25
 256 512 l 25
 256 384 l 25
 128 384 l 25
EndSplineSet
EndChar

StartChar: 007c
Encoding: 124 124 124
Width: 256
Flags: HMW
LayerCount: 2
Fore
SplineSet
0 0 m 25
 0 640 l 25
 128 640 l 25
 128 0 l 25
 0 0 l 25
EndSplineSet
EndChar

StartChar: 007d
Encoding: 125 125 125
Width: 512
Flags: HMW
LayerCount: 2
Fore
SplineSet
0 0 m 25
 0 128 l 25
 128 128 l 25
 128 256 l 25
 256 256 l 25
 256 0 l 25
 0 0 l 25
256 256 m 25
 256 384 l 25
 384 384 l 25
 384 256 l 25
 256 256 l 25
128 384 m 25
 128 512 l 25
 0 512 l 25
 0 640 l 25
 256 640 l 25
 256 384 l 25
 128 384 l 25
EndSplineSet
EndChar

StartChar: 007e
Encoding: 126 126 126
Width: 640
Flags: HMW
LayerCount: 2
Fore
SplineSet
0 128 m 25
 0 256 l 25
 128 256 l 25
 128 128 l 25
 0 128 l 25
256 128 m 25
 256 256 l 25
 384 256 l 25
 384 128 l 25
 256 128 l 25
128 256 m 25
 128 384 l 25
 256 384 l 25
 256 256 l 25
 128 256 l 25
384 256 m 25
 384 384 l 25
 512 384 l 25
 512 256 l 25
 384 256 l 25
EndSplineSet
EndChar

StartChar: 00a1
Encoding: 161 161 161
Width: 256
Flags: HMW
LayerCount: 2
Fore
SplineSet
0 0 m 25
 0 384 l 25
 128 384 l 25
 128 0 l 25
 0 0 l 25
0 512 m 25
 0 640 l 25
 128 640 l 25
 128 512 l 25
 0 512 l 25
EndSplineSet
EndChar

StartChar: 00a2
Encoding: 162 162 162
Width: 512
Flags: HMW
LayerCount: 2
Fore
SplineSet
128 0 m 25
 128 256 l 25
 384 256 l 25
 384 128 l 25
 256 128 l 25
 256 0 l 25
 128 0 l 25
0 256 m 25
 0 384 l 25
 128 384 l 25
 128 256 l 25
 0 256 l 25
128 384 m 25
 128 640 l 25
 256 640 l 25
 256 512 l 25
 384 512 l 25
 384 384 l 25
 128 384 l 25
EndSplineSet
EndChar

StartChar: 00a3
Encoding: 163 163 163
Width: 640
Flags: HMW
LayerCount: 2
Fore
SplineSet
0 0 m 25
 0 128 l 25
 128 128 l 25
 128 256 l 25
 0 256 l 25
 0 384 l 25
 128 384 l 25
 128 512 l 25
 256 512 l 25
 256 384 l 25
 384 384 l 25
 384 256 l 25
 256 256 l 25
 256 128 l 25
 512 128 l 25
 512 0 l 25
 0 0 l 25
384 384 m 25
 384 512 l 25
 512 512 l 25
 512 384 l 25
 384 384 l 25
256 512 m 25
 256 640 l 25
 384 640 l 25
 384 512 l 25
 256 512 l 25
EndSplineSet
EndChar

StartChar: 00a4
Encoding: 164 164 164
Width: 640
Flags: HMW
LayerCount: 2
Fore
SplineSet
0 0 m 25
 0 128 l 25
 128 128 l 25
 128 0 l 25
 0 0 l 25
384 0 m 25
 384 128 l 25
 512 128 l 25
 512 0 l 25
 384 0 l 25
128 128 m 25
 128 384 l 25
 384 384 l 25
 384 128 l 25
 128 128 l 25
0 384 m 25
 0 512 l 25
 128 512 l 25
 128 384 l 25
 0 384 l 25
384 384 m 25
 384 512 l 25
 512 512 l 25
 512 384 l 25
 384 384 l 25
EndSplineSet
EndChar

StartChar: 00a5
Encoding: 165 165 165
Width: 512
Flags: HMW
LayerCount: 2
Fore
SplineSet
128 0 m 25
 128 128 l 25
 0 128 l 25
 0 256 l 25
 128 256 l 25
 128 384 l 25
 256 384 l 25
 256 256 l 25
 384 256 l 25
 384 128 l 25
 256 128 l 25
 256 0 l 25
 128 0 l 25
0 384 m 25
 0 640 l 25
 128 640 l 25
 128 384 l 25
 0 384 l 25
256 384 m 25
 256 640 l 25
 384 640 l 25
 384 384 l 25
 256 384 l 25
EndSplineSet
EndChar

StartChar: 00a6
Encoding: 166 166 166
Width: 256
Flags: HMW
LayerCount: 2
Fore
SplineSet
0 0 m 25
 0 256 l 25
 128 256 l 25
 128 0 l 25
 0 0 l 25
0 384 m 25
 0 640 l 25
 128 640 l 25
 128 384 l 25
 0 384 l 25
EndSplineSet
EndChar

StartChar: 00a7
Encoding: 167 167 167
Width: 512
Flags: HMW
LayerCount: 2
Fore
SplineSet
0 0 m 25
 0 128 l 25
 128 128 l 25
 128 256 l 25
 256 256 l 25
 256 384 l 25
 384 384 l 25
 384 128 l 25
 256 128 l 25
 256 0 l 25
 0 0 l 25
0 256 m 25
 0 512 l 25
 128 512 l 25
 128 640 l 25
 384 640 l 25
 384 512 l 25
 256 512 l 25
 256 384 l 25
 128 384 l 25
 128 256 l 25
 0 256 l 25
EndSplineSet
EndChar

StartChar: 00a8
Encoding: 168 168 168
Width: 512
Flags: HMW
LayerCount: 2
Fore
SplineSet
0 512 m 25
 0 640 l 25
 128 640 l 25
 128 512 l 25
 0 512 l 25
256 512 m 25
 256 640 l 25
 384 640 l 25
 384 512 l 25
 256 512 l 25
EndSplineSet
EndChar

StartChar: 00a9
Encoding: 169 169 169
Width: 512
Flags: HMW
LayerCount: 2
Fore
SplineSet
128 128 m 25
 128 256 l 25
 384 256 l 25
 384 128 l 25
 128 128 l 25
0 256 m 25
 0 512 l 25
 128 512 l 25
 128 256 l 25
 0 256 l 25
128 512 m 25
 128 640 l 25
 384 640 l 25
 384 512 l 25
 128 512 l 25
EndSplineSet
EndChar

StartChar: 00aa
Encoding: 170 170 170
Width: 512
Flags: HMW
LayerCount: 2
Fore
SplineSet
128 256 m 25
 128 384 l 25
 256 384 l 25
 256 512 l 25
 128 512 l 25
 128 640 l 25
 384 640 l 25
 384 256 l 25
 128 256 l 25
0 384 m 25
 0 512 l 25
 128 512 l 25
 128 384 l 25
 0 384 l 25
EndSplineSet
EndChar

StartChar: 00ab
Encoding: 171 171 171
Width: 640
Flags: HMW
LayerCount: 2
Fore
SplineSet
128 128 m 25
 128 256 l 25
 256 256 l 25
 256 128 l 25
 128 128 l 25
384 128 m 25
 384 256 l 25
 512 256 l 25
 512 128 l 25
 384 128 l 25
0 256 m 25
 0 384 l 25
 128 384 l 25
 128 256 l 25
 0 256 l 25
256 256 m 25
 256 384 l 25
 384 384 l 25
 384 256 l 25
 256 256 l 25
128 384 m 25
 128 512 l 25
 256 512 l 25
 256 384 l 25
 128 384 l 25
384 384 m 25
 384 512 l 25
 512 512 l 25
 512 384 l 25
 384 384 l 25
EndSplineSet
EndChar

StartChar: 00ac
Encoding: 172 172 172
Width: 512
Flags: HMW
LayerCount: 2
Fore
SplineSet
256 128 m 25
 256 256 l 25
 0 256 l 25
 0 384 l 25
 384 384 l 25
 384 128 l 25
 256 128 l 25
EndSplineSet
EndChar

StartChar: 00ae
Encoding: 174 174 174
Width: 512
Flags: HMW
LayerCount: 2
Fore
SplineSet
0 128 m 25
 0 640 l 25
 256 640 l 25
 256 512 l 25
 128 512 l 25
 128 384 l 25
 256 384 l 25
 256 256 l 25
 128 256 l 25
 128 128 l 25
 0 128 l 25
256 128 m 25
 256 256 l 25
 384 256 l 25
 384 128 l 25
 256 128 l 25
256 384 m 25
 256 512 l 25
 384 512 l 25
 384 384 l 25
 256 384 l 25
EndSplineSet
EndChar

StartChar: 00af
Encoding: 175 175 175
Width: 512
Flags: HMW
LayerCount: 2
Fore
SplineSet
0 512 m 25
 0 640 l 25
 384 640 l 25
 384 512 l 25
 0 512 l 25
EndSplineSet
EndChar

StartChar: 00b0
Encoding: 176 176 176
Width: 512
Flags: HMW
LayerCount: 2
Fore
SplineSet
128 256 m 25
 128 384 l 25
 256 384 l 25
 256 256 l 25
 128 256 l 25
0 384 m 25
 0 512 l 25
 128 512 l 25
 128 384 l 25
 0 384 l 25
256 384 m 25
 256 512 l 25
 384 512 l 25
 384 384 l 25
 256 384 l 25
128 512 m 25
 128 640 l 25
 256 640 l 25
 256 512 l 25
 128 512 l 25
EndSplineSet
EndChar

StartChar: 00b1
Encoding: 177 177 177
Width: 512
Flags: HMW
LayerCount: 2
Fore
SplineSet
0 0 m 25
 0 128 l 25
 384 128 l 25
 384 0 l 25
 0 0 l 25
128 256 m 25
 128 384 l 25
 0 384 l 25
 0 512 l 25
 128 512 l 25
 128 640 l 25
 256 640 l 25
 256 512 l 25
 384 512 l 25
 384 384 l 25
 256 384 l 25
 256 256 l 25
 128 256 l 25
EndSplineSet
EndChar

StartChar: 00b2
Encoding: 178 178 178
Width: 512
Flags: HMW
LayerCount: 2
Fore
SplineSet
0 128 m 25
 0 256 l 25
 128 256 l 25
 128 384 l 25
 256 384 l 25
 256 256 l 25
 384 256 l 25
 384 128 l 25
 0 128 l 25
256 384 m 25
 256 512 l 25
 384 512 l 25
 384 384 l 25
 256 384 l 25
0 512 m 25
 0 640 l 25
 256 640 l 25
 256 512 l 25
 0 512 l 25
EndSplineSet
EndChar

StartChar: 00b3
Encoding: 179 179 179
Width: 512
Flags: HMW
LayerCount: 2
Fore
SplineSet
0 128 m 25
 0 256 l 25
 256 256 l 25
 256 128 l 25
 0 128 l 25
256 256 m 25
 256 384 l 25
 384 384 l 25
 384 256 l 25
 256 256 l 25
128 384 m 25
 128 512 l 25
 0 512 l 25
 0 640 l 25
 384 640 l 25
 384 512 l 25
 256 512 l 25
 256 384 l 25
 128 384 l 25
EndSplineSet
EndChar

StartChar: 00b4
Encoding: 180 180 180
Width: 384
Flags: HMW
LayerCount: 2
Fore
SplineSet
0 384 m 25
 0 512 l 25
 128 512 l 25
 128 384 l 25
 0 384 l 25
128 512 m 25
 128 640 l 25
 256 640 l 25
 256 512 l 25
 128 512 l 25
EndSplineSet
EndChar

StartChar: 00b5
Encoding: 181 181 181
Width: 512
Flags: HMW
LayerCount: 2
Fore
SplineSet
0 -128 m 25
 0 384 l 25
 128 384 l 25
 128 128 l 25
 256 128 l 25
 256 384 l 25
 384 384 l 25
 384 0 l 25
 128 0 l 25
 128 -128 l 25
 0 -128 l 25
EndSplineSet
EndChar

StartChar: 00b6
Encoding: 182 182 182
Width: 640
Flags: HMW
LayerCount: 2
Fore
SplineSet
128 0 m 25
 128 384 l 25
 0 384 l 25
 0 512 l 25
 128 512 l 25
 128 640 l 25
 512 640 l 25
 512 0 l 25
 384 0 l 25
 384 512 l 25
 256 512 l 25
 256 0 l 25
 128 0 l 25
EndSplineSet
EndChar

StartChar: 00b7
Encoding: 183 183 183
Width: 256
Flags: HMW
LayerCount: 2
Fore
SplineSet
0 256 m 25
 0 384 l 25
 128 384 l 25
 128 256 l 25
 0 256 l 25
EndSplineSet
EndChar

StartChar: 00b8
Encoding: 184 184 184
Width: 384
Flags: HMW
LayerCount: 2
Fore
SplineSet
0 -128 m 25
 0 0 l 25
 128 0 l 25
 128 -128 l 25
 0 -128 l 25
128 0 m 25
 128 128 l 25
 256 128 l 25
 256 0 l 25
 128 0 l 25
EndSplineSet
EndChar

StartChar: 00b9
Encoding: 185 185 185
Width: 384
Flags: HMW
LayerCount: 2
Fore
SplineSet
128 128 m 25
 128 384 l 25
 0 384 l 25
 0 512 l 25
 128 512 l 25
 128 640 l 25
 256 640 l 25
 256 128 l 25
 128 128 l 25
EndSplineSet
EndChar

StartChar: 00ba
Encoding: 186 186 186
Width: 512
Flags: HMW
LayerCount: 2
Fore
SplineSet
128 256 m 25
 128 384 l 25
 256 384 l 25
 256 256 l 25
 128 256 l 25
0 384 m 25
 0 512 l 25
 128 512 l 25
 128 384 l 25
 0 384 l 25
256 384 m 25
 256 512 l 25
 384 512 l 25
 384 384 l 25
 256 384 l 25
128 512 m 25
 128 640 l 25
 256 640 l 25
 256 512 l 25
 128 512 l 25
EndSplineSet
EndChar

StartChar: 00bb
Encoding: 187 187 187
Width: 640
Flags: HMW
LayerCount: 2
Fore
SplineSet
0 128 m 25
 0 256 l 25
 128 256 l 25
 128 128 l 25
 0 128 l 25
256 128 m 25
 256 256 l 25
 384 256 l 25
 384 128 l 25
 256 128 l 25
128 256 m 25
 128 384 l 25
 256 384 l 25
 256 256 l 25
 128 256 l 25
384 256 m 25
 384 384 l 25
 512 384 l 25
 512 256 l 25
 384 256 l 25
0 384 m 25
 0 512 l 25
 128 512 l 25
 128 384 l 25
 0 384 l 25
256 384 m 25
 256 512 l 25
 384 512 l 25
 384 384 l 25
 256 384 l 25
EndSplineSet
EndChar

StartChar: 00bc
Encoding: 188 188 188
Width: 896
Flags: HMW
LayerCount: 2
Fore
SplineSet
640 0 m 25
 640 128 l 25
 384 128 l 25
 384 256 l 25
 512 256 l 25
 512 384 l 25
 640 384 l 25
 640 512 l 25
 768 512 l 25
 768 0 l 25
 640 0 l 25
128 128 m 25
 128 384 l 25
 0 384 l 25
 0 512 l 25
 128 512 l 25
 128 640 l 25
 256 640 l 25
 256 128 l 25
 128 128 l 25
EndSplineSet
EndChar

StartChar: 00bd
Encoding: 189 189 189
Width: 896
Flags: HMW
LayerCount: 2
Fore
SplineSet
384 0 m 25
 384 128 l 25
 512 128 l 25
 512 256 l 25
 640 256 l 25
 640 128 l 25
 768 128 l 25
 768 0 l 25
 384 0 l 25
128 128 m 25
 128 384 l 25
 0 384 l 25
 0 512 l 25
 128 512 l 25
 128 640 l 25
 256 640 l 25
 256 128 l 25
 128 128 l 25
640 256 m 25
 640 384 l 25
 768 384 l 25
 768 256 l 25
 640 256 l 25
384 384 m 25
 384 512 l 25
 640 512 l 25
 640 384 l 25
 384 384 l 25
EndSplineSet
EndChar

StartChar: 00be
Encoding: 190 190 190
Width: 896
Flags: HMW
LayerCount: 2
Fore
SplineSet
640 0 m 25
 640 128 l 25
 384 128 l 25
 384 256 l 25
 512 256 l 25
 512 384 l 25
 640 384 l 25
 640 512 l 25
 768 512 l 25
 768 0 l 25
 640 0 l 25
0 128 m 25
 0 256 l 25
 256 256 l 25
 256 128 l 25
 0 128 l 25
256 256 m 25
 256 384 l 25
 384 384 l 25
 384 256 l 25
 256 256 l 25
128 384 m 25
 128 512 l 25
 0 512 l 25
 0 640 l 25
 384 640 l 25
 384 512 l 25
 256 512 l 25
 256 384 l 25
 128 384 l 25
EndSplineSet
EndChar

StartChar: 00bf
Encoding: 191 191 191
Width: 512
Flags: HMW
LayerCount: 2
Fore
SplineSet
128 0 m 25
 128 128 l 25
 384 128 l 25
 384 0 l 25
 128 0 l 25
0 128 m 25
 0 256 l 25
 128 256 l 25
 128 128 l 25
 0 128 l 25
128 256 m 25
 128 384 l 25
 256 384 l 25
 256 256 l 25
 128 256 l 25
128 512 m 25
 128 640 l 25
 256 640 l 25
 256 512 l 25
 128 512 l 25
EndSplineSet
EndChar

StartChar: 00c0
Encoding: 192 192 192
Width: 640
Flags: HMW
LayerCount: 2
Fore
SplineSet
0 0 m 25
 0 512 l 25
 128 512 l 25
 128 384 l 25
 384 384 l 25
 384 512 l 25
 512 512 l 25
 512 0 l 25
 384 0 l 25
 384 256 l 25
 128 256 l 25
 128 0 l 25
 0 0 l 25
128 512 m 25
 128 768 l 25
 256 768 l 25
 256 640 l 25
 384 640 l 25
 384 512 l 25
 128 512 l 25
EndSplineSet
EndChar

StartChar: 00c1
Encoding: 193 193 193
Width: 640
Flags: HMW
LayerCount: 2
Fore
SplineSet
0 0 m 25
 0 512 l 25
 128 512 l 25
 128 384 l 25
 384 384 l 25
 384 512 l 25
 512 512 l 25
 512 0 l 25
 384 0 l 25
 384 256 l 25
 128 256 l 25
 128 0 l 25
 0 0 l 25
128 512 m 25
 128 640 l 25
 256 640 l 25
 256 768 l 25
 384 768 l 25
 384 512 l 25
 128 512 l 25
EndSplineSet
EndChar

StartChar: 00c2
Encoding: 194 194 194
Width: 640
Flags: HMW
LayerCount: 2
Fore
SplineSet
0 0 m 25
 0 512 l 25
 128 512 l 25
 128 384 l 25
 384 384 l 25
 384 512 l 25
 512 512 l 25
 512 0 l 25
 384 0 l 25
 384 256 l 25
 128 256 l 25
 128 0 l 25
 0 0 l 25
128 512 m 25
 128 768 l 25
 384 768 l 25
 384 512 l 25
 128 512 l 25
EndSplineSet
EndChar

StartChar: 00c3
Encoding: 195 195 195
Width: 640
Flags: HMW
LayerCount: 2
Fore
SplineSet
0 0 m 25
 0 384 l 25
 128 384 l 25
 128 256 l 25
 384 256 l 25
 384 384 l 25
 512 384 l 25
 512 0 l 25
 384 0 l 25
 384 128 l 25
 128 128 l 25
 128 0 l 25
 0 0 l 25
128 384 m 25
 128 512 l 25
 256 512 l 25
 256 640 l 25
 384 640 l 25
 384 384 l 25
 128 384 l 25
0 512 m 25
 0 640 l 25
 128 640 l 25
 128 512 l 25
 0 512 l 25
128 640 m 25
 128 768 l 25
 256 768 l 25
 256 640 l 25
 128 640 l 25
384 640 m 25
 384 768 l 25
 512 768 l 25
 512 640 l 25
 384 640 l 25
EndSplineSet
EndChar

StartChar: 00c4
Encoding: 196 196 196
Width: 640
Flags: HMW
LayerCount: 2
Fore
SplineSet
0 0 m 25
 0 512 l 25
 128 512 l 25
 128 384 l 25
 384 384 l 25
 384 512 l 25
 512 512 l 25
 512 0 l 25
 384 0 l 25
 384 256 l 25
 128 256 l 25
 128 0 l 25
 0 0 l 25
128 512 m 25
 128 640 l 25
 384 640 l 25
 384 512 l 25
 128 512 l 25
0 640 m 25
 0 768 l 25
 128 768 l 25
 128 640 l 25
 0 640 l 25
384 640 m 25
 384 768 l 25
 512 768 l 25
 512 640 l 25
 384 640 l 25
EndSplineSet
EndChar

StartChar: 00c5
Encoding: 197 197 197
Width: 640
Flags: HMW
LayerCount: 2
Fore
SplineSet
0 0 m 25
 0 384 l 25
 128 384 l 25
 128 256 l 25
 384 256 l 25
 384 384 l 25
 512 384 l 25
 512 0 l 25
 384 0 l 25
 384 128 l 25
 128 128 l 25
 128 0 l 25
 0 0 l 25
128 384 m 25
 128 512 l 25
 384 512 l 25
 384 384 l 25
 128 384 l 25
0 512 m 25
 0 640 l 25
 128 640 l 25
 128 512 l 25
 0 512 l 25
384 512 m 25
 384 640 l 25
 512 640 l 25
 512 512 l 25
 384 512 l 25
128 640 m 25
 128 768 l 25
 384 768 l 25
 384 640 l 25
 128 640 l 25
EndSplineSet
EndChar

StartChar: 00c6
Encoding: 198 198 198
Width: 768
Flags: HMW
LayerCount: 2
Fore
SplineSet
0 0 m 25
 0 512 l 25
 128 512 l 25
 128 384 l 25
 256 384 l 25
 256 512 l 25
 128 512 l 25
 128 640 l 25
 640 640 l 25
 640 512 l 25
 384 512 l 25
 384 384 l 25
 640 384 l 25
 640 256 l 25
 384 256 l 25
 384 128 l 25
 640 128 l 25
 640 0 l 25
 256 0 l 25
 256 256 l 25
 128 256 l 25
 128 0 l 25
 0 0 l 25
EndSplineSet
EndChar

StartChar: 00c7
Encoding: 199 199 199
Width: 640
Flags: HMW
LayerCount: 2
Fore
SplineSet
128 -128 m 25
 128 128 l 25
 384 128 l 25
 384 0 l 25
 256 0 l 25
 256 -128 l 25
 128 -128 l 25
0 128 m 25
 0 512 l 25
 128 512 l 25
 128 128 l 25
 0 128 l 25
384 128 m 25
 384 256 l 25
 512 256 l 25
 512 128 l 25
 384 128 l 25
384 384 m 25
 384 512 l 25
 512 512 l 25
 512 384 l 25
 384 384 l 25
128 512 m 25
 128 640 l 25
 384 640 l 25
 384 512 l 25
 128 512 l 25
EndSplineSet
EndChar

StartChar: 00c8
Encoding: 200 200 200
Width: 640
Flags: HMW
LayerCount: 2
Fore
SplineSet
0 0 m 25
 0 640 l 25
 128 640 l 25
 128 768 l 25
 256 768 l 25
 256 640 l 25
 512 640 l 25
 512 512 l 25
 128 512 l 25
 128 384 l 25
 384 384 l 25
 384 256 l 25
 128 256 l 25
 128 128 l 25
 512 128 l 25
 512 0 l 25
 0 0 l 25
EndSplineSet
EndChar

StartChar: 00c9
Encoding: 201 201 201
Width: 640
Flags: HMW
LayerCount: 2
Fore
SplineSet
0 0 m 25
 0 640 l 25
 256 640 l 25
 256 768 l 25
 384 768 l 25
 384 640 l 25
 512 640 l 25
 512 512 l 25
 128 512 l 25
 128 384 l 25
 384 384 l 25
 384 256 l 25
 128 256 l 25
 128 128 l 25
 512 128 l 25
 512 0 l 25
 0 0 l 25
EndSplineSet
EndChar

StartChar: 00ca
Encoding: 202 202 202
Width: 640
Flags: HMW
LayerCount: 2
Fore
SplineSet
0 0 m 25
 0 640 l 25
 128 640 l 25
 128 768 l 25
 384 768 l 25
 384 640 l 25
 512 640 l 25
 512 512 l 25
 128 512 l 25
 128 384 l 25
 384 384 l 25
 384 256 l 25
 128 256 l 25
 128 128 l 25
 512 128 l 25
 512 0 l 25
 0 0 l 25
EndSplineSet
EndChar

StartChar: 00cb
Encoding: 203 203 203
Width: 640
Flags: HMW
LayerCount: 2
Fore
SplineSet
0 0 m 25
 0 768 l 25
 128 768 l 25
 128 640 l 25
 384 640 l 25
 384 768 l 25
 512 768 l 25
 512 512 l 25
 128 512 l 25
 128 384 l 25
 384 384 l 25
 384 256 l 25
 128 256 l 25
 128 128 l 25
 512 128 l 25
 512 0 l 25
 0 0 l 25
EndSplineSet
EndChar

StartChar: 00cc
Encoding: 204 204 204
Width: 512
Flags: HMW
LayerCount: 2
Fore
SplineSet
128 0 m 25
 128 640 l 25
 256 640 l 25
 256 0 l 25
 128 0 l 25
0 640 m 25
 0 768 l 25
 128 768 l 25
 128 640 l 25
 0 640 l 25
EndSplineSet
EndChar

StartChar: 00cd
Encoding: 205 205 205
Width: 256
Flags: HMW
LayerCount: 2
Fore
SplineSet
0 0 m 25
 0 640 l 25
 128 640 l 25
 128 0 l 25
 0 0 l 25
128 640 m 25
 128 768 l 25
 256 768 l 25
 256 640 l 25
 128 640 l 25
EndSplineSet
EndChar

StartChar: 00ce
Encoding: 206 206 206
Width: 256
Flags: HMW
LayerCount: 2
Fore
SplineSet
0 0 m 25
 0 768 l 25
 256 768 l 25
 256 640 l 25
 128 640 l 25
 128 0 l 25
 0 0 l 25
EndSplineSet
EndChar

StartChar: 00cf
Encoding: 207 207 207
Width: 512
Flags: HMW
LayerCount: 2
Fore
SplineSet
128 0 m 25
 128 640 l 25
 256 640 l 25
 256 0 l 25
 128 0 l 25
0 640 m 25
 0 768 l 25
 128 768 l 25
 128 640 l 25
 0 640 l 25
256 640 m 25
 256 768 l 25
 384 768 l 25
 384 640 l 25
 256 640 l 25
EndSplineSet
EndChar

StartChar: 00d0
Encoding: 208 208 208
Width: 640
Flags: HMW
LayerCount: 2
Fore
SplineSet
0 0 m 25
 0 640 l 25
 384 640 l 25
 384 512 l 25
 128 512 l 25
 128 384 l 25
 256 384 l 25
 256 256 l 25
 128 256 l 25
 128 128 l 25
 384 128 l 25
 384 0 l 25
 0 0 l 25
384 128 m 25
 384 512 l 25
 512 512 l 25
 512 128 l 25
 384 128 l 25
EndSplineSet
EndChar

StartChar: 00d1
Encoding: 209 209 209
Width: 640
Flags: HMW
LayerCount: 2
Fore
SplineSet
0 0 m 25
 0 640 l 25
 128 640 l 25
 128 512 l 25
 256 512 l 25
 256 384 l 25
 128 384 l 25
 128 0 l 25
 0 0 l 25
384 0 m 25
 384 256 l 25
 256 256 l 25
 256 384 l 25
 384 384 l 25
 384 640 l 25
 512 640 l 25
 512 0 l 25
 384 0 l 25
128 640 m 25
 128 768 l 25
 384 768 l 25
 384 640 l 25
 128 640 l 25
EndSplineSet
EndChar

StartChar: 00d2
Encoding: 210 210 210
Width: 640
Flags: HMW
LayerCount: 2
Fore
SplineSet
128 0 m 25
 128 128 l 25
 384 128 l 25
 384 0 l 25
 128 0 l 25
0 128 m 25
 0 512 l 25
 128 512 l 25
 128 128 l 25
 0 128 l 25
384 128 m 25
 384 512 l 25
 512 512 l 25
 512 128 l 25
 384 128 l 25
128 512 m 25
 128 768 l 25
 256 768 l 25
 256 640 l 25
 384 640 l 25
 384 512 l 25
 128 512 l 25
EndSplineSet
EndChar

StartChar: 00d3
Encoding: 211 211 211
Width: 640
Flags: HMW
LayerCount: 2
Fore
SplineSet
128 0 m 25
 128 128 l 25
 384 128 l 25
 384 0 l 25
 128 0 l 25
0 128 m 25
 0 512 l 25
 128 512 l 25
 128 128 l 25
 0 128 l 25
384 128 m 25
 384 512 l 25
 512 512 l 25
 512 128 l 25
 384 128 l 25
128 512 m 25
 128 640 l 25
 256 640 l 25
 256 768 l 25
 384 768 l 25
 384 512 l 25
 128 512 l 25
EndSplineSet
EndChar

StartChar: 00d4
Encoding: 212 212 212
Width: 640
Flags: HMW
LayerCount: 2
Fore
SplineSet
128 0 m 25
 128 128 l 25
 384 128 l 25
 384 0 l 25
 128 0 l 25
0 128 m 25
 0 512 l 25
 128 512 l 25
 128 128 l 25
 0 128 l 25
384 128 m 25
 384 512 l 25
 512 512 l 25
 512 128 l 25
 384 128 l 25
128 512 m 25
 128 768 l 25
 384 768 l 25
 384 512 l 25
 128 512 l 25
EndSplineSet
EndChar

StartChar: 00d5
Encoding: 213 213 213
Width: 640
Flags: HMW
LayerCount: 2
Fore
SplineSet
128 0 m 25
 128 128 l 25
 384 128 l 25
 384 0 l 25
 128 0 l 25
0 128 m 25
 0 384 l 25
 128 384 l 25
 128 128 l 25
 0 128 l 25
384 128 m 25
 384 384 l 25
 512 384 l 25
 512 128 l 25
 384 128 l 25
128 384 m 25
 128 512 l 25
 256 512 l 25
 256 640 l 25
 384 640 l 25
 384 384 l 25
 128 384 l 25
0 512 m 25
 0 640 l 25
 128 640 l 25
 128 512 l 25
 0 512 l 25
128 640 m 25
 128 768 l 25
 256 768 l 25
 256 640 l 25
 128 640 l 25
384 640 m 25
 384 768 l 25
 512 768 l 25
 512 640 l 25
 384 640 l 25
EndSplineSet
EndChar

StartChar: 00d6
Encoding: 214 214 214
Width: 640
Flags: HMW
LayerCount: 2
Fore
SplineSet
128 0 m 25
 128 128 l 25
 384 128 l 25
 384 0 l 25
 128 0 l 25
0 128 m 25
 0 512 l 25
 128 512 l 25
 128 128 l 25
 0 128 l 25
384 128 m 25
 384 512 l 25
 512 512 l 25
 512 128 l 25
 384 128 l 25
128 512 m 25
 128 640 l 25
 384 640 l 25
 384 512 l 25
 128 512 l 25
0 640 m 25
 0 768 l 25
 128 768 l 25
 128 640 l 25
 0 640 l 25
384 640 m 25
 384 768 l 25
 512 768 l 25
 512 640 l 25
 384 640 l 25
EndSplineSet
EndChar

StartChar: 00d7
Encoding: 215 215 215
Width: 512
Flags: HMW
LayerCount: 2
Fore
SplineSet
0 128 m 25
 0 256 l 25
 128 256 l 25
 128 128 l 25
 0 128 l 25
256 128 m 25
 256 256 l 25
 384 256 l 25
 384 128 l 25
 256 128 l 25
128 256 m 25
 128 384 l 25
 256 384 l 25
 256 256 l 25
 128 256 l 25
0 384 m 25
 0 512 l 25
 128 512 l 25
 128 384 l 25
 0 384 l 25
256 384 m 25
 256 512 l 25
 384 512 l 25
 384 384 l 25
 256 384 l 25
EndSplineSet
EndChar

StartChar: 00d8
Encoding: 216 216 216
Width: 640
Flags: HMW
LayerCount: 2
Fore
SplineSet
128 0 m 25
 128 128 l 25
 384 128 l 25
 384 0 l 25
 128 0 l 25
0 128 m 25
 0 512 l 25
 128 512 l 25
 128 384 l 25
 256 384 l 25
 256 256 l 25
 128 256 l 25
 128 128 l 25
 0 128 l 25
384 128 m 25
 384 384 l 25
 256 384 l 25
 256 512 l 25
 128 512 l 25
 128 640 l 25
 384 640 l 25
 384 512 l 25
 512 512 l 25
 512 128 l 25
 384 128 l 25
EndSplineSet
EndChar

StartChar: 00d9
Encoding: 217 217 217
Width: 640
Flags: HMW
LayerCount: 2
Fore
SplineSet
128 0 m 25
 128 128 l 25
 384 128 l 25
 384 0 l 25
 128 0 l 25
0 128 m 25
 0 640 l 25
 128 640 l 25
 128 128 l 25
 0 128 l 25
384 128 m 25
 384 640 l 25
 512 640 l 25
 512 128 l 25
 384 128 l 25
256 640 m 25
 256 768 l 25
 384 768 l 25
 384 640 l 25
 256 640 l 25
EndSplineSet
EndChar

StartChar: 00da
Encoding: 218 218 218
Width: 640
Flags: HMW
LayerCount: 2
Fore
SplineSet
128 0 m 25
 128 128 l 25
 384 128 l 25
 384 0 l 25
 128 0 l 25
0 128 m 25
 0 640 l 25
 128 640 l 25
 128 128 l 25
 0 128 l 25
384 128 m 25
 384 640 l 25
 512 640 l 25
 512 128 l 25
 384 128 l 25
128 640 m 25
 128 768 l 25
 256 768 l 25
 256 640 l 25
 128 640 l 25
EndSplineSet
EndChar

StartChar: 00db
Encoding: 219 219 219
Width: 640
Flags: HMW
LayerCount: 2
Fore
SplineSet
128 0 m 25
 128 128 l 25
 384 128 l 25
 384 0 l 25
 128 0 l 25
0 128 m 25
 0 512 l 25
 128 512 l 25
 128 128 l 25
 0 128 l 25
384 128 m 25
 384 512 l 25
 512 512 l 25
 512 128 l 25
 384 128 l 25
128 640 m 25
 128 768 l 25
 384 768 l 25
 384 640 l 25
 128 640 l 25
EndSplineSet
EndChar

StartChar: 00dc
Encoding: 220 220 220
Width: 640
Flags: HMW
LayerCount: 2
Fore
SplineSet
128 0 m 25
 128 128 l 25
 384 128 l 25
 384 0 l 25
 128 0 l 25
0 128 m 25
 0 512 l 25
 128 512 l 25
 128 128 l 25
 0 128 l 25
384 128 m 25
 384 512 l 25
 512 512 l 25
 512 128 l 25
 384 128 l 25
0 640 m 25
 0 768 l 25
 128 768 l 25
 128 640 l 25
 0 640 l 25
384 640 m 25
 384 768 l 25
 512 768 l 25
 512 640 l 25
 384 640 l 25
EndSplineSet
EndChar

StartChar: 00dd
Encoding: 221 221 221
Width: 512
Flags: HMW
LayerCount: 2
Fore
SplineSet
128 0 m 25
 128 256 l 25
 256 256 l 25
 256 0 l 25
 128 0 l 25
0 256 m 25
 0 512 l 25
 128 512 l 25
 128 256 l 25
 0 256 l 25
256 256 m 25
 256 512 l 25
 384 512 l 25
 384 256 l 25
 256 256 l 25
128 512 m 25
 128 640 l 25
 256 640 l 25
 256 512 l 25
 128 512 l 25
256 640 m 25
 256 768 l 25
 384 768 l 25
 384 640 l 25
 256 640 l 25
EndSplineSet
EndChar

StartChar: 00de
Encoding: 222 222 222
Width: 640
Flags: HMW
LayerCount: 2
Fore
SplineSet
0 0 m 25
 0 640 l 25
 128 640 l 25
 128 512 l 25
 384 512 l 25
 384 384 l 25
 128 384 l 25
 128 256 l 25
 384 256 l 25
 384 128 l 25
 128 128 l 25
 128 0 l 25
 0 0 l 25
384 256 m 25
 384 384 l 25
 512 384 l 25
 512 256 l 25
 384 256 l 25
EndSplineSet
EndChar

StartChar: 00df
Encoding: 223 223 223
Width: 512
Flags: HMW
LayerCount: 2
Fore
SplineSet
0 -128 m 25
 0 512 l 25
 128 512 l 25
 128 384 l 25
 256 384 l 25
 256 256 l 25
 128 256 l 25
 128 128 l 25
 256 128 l 25
 256 0 l 25
 128 0 l 25
 128 -128 l 25
 0 -128 l 25
256 128 m 25
 256 256 l 25
 384 256 l 25
 384 128 l 25
 256 128 l 25
256 384 m 25
 256 512 l 25
 384 512 l 25
 384 384 l 25
 256 384 l 25
128 512 m 25
 128 640 l 25
 256 640 l 25
 256 512 l 25
 128 512 l 25
EndSplineSet
EndChar

StartChar: 00e0
Encoding: 224 224 224
Width: 512
Flags: HMW
LayerCount: 2
Fore
SplineSet
128 0 m 25
 128 128 l 25
 256 128 l 25
 256 384 l 25
 128 384 l 25
 128 640 l 25
 256 640 l 25
 256 512 l 25
 384 512 l 25
 384 0 l 25
 128 0 l 25
0 128 m 25
 0 384 l 25
 128 384 l 25
 128 128 l 25
 0 128 l 25
0 640 m 25
 0 768 l 25
 128 768 l 25
 128 640 l 25
 0 640 l 25
EndSplineSet
EndChar

StartChar: 00e1
Encoding: 225 225 225
Width: 512
Flags: HMW
LayerCount: 2
Fore
SplineSet
128 0 m 25
 128 128 l 25
 256 128 l 25
 256 384 l 25
 128 384 l 25
 128 640 l 25
 256 640 l 25
 256 512 l 25
 384 512 l 25
 384 0 l 25
 128 0 l 25
0 128 m 25
 0 384 l 25
 128 384 l 25
 128 128 l 25
 0 128 l 25
256 640 m 25
 256 768 l 25
 384 768 l 25
 384 640 l 25
 256 640 l 25
EndSplineSet
EndChar

StartChar: 00e2
Encoding: 226 226 226
Width: 512
Flags: HMW
LayerCount: 2
Fore
SplineSet
128 0 m 25
 128 128 l 25
 256 128 l 25
 256 384 l 25
 128 384 l 25
 128 512 l 25
 384 512 l 25
 384 0 l 25
 128 0 l 25
0 128 m 25
 0 384 l 25
 128 384 l 25
 128 128 l 25
 0 128 l 25
128 640 m 25
 128 768 l 25
 384 768 l 25
 384 640 l 25
 128 640 l 25
EndSplineSet
EndChar

StartChar: 00e3
Encoding: 227 227 227
Width: 512
Flags: HMW
LayerCount: 2
Fore
SplineSet
128 0 m 25
 128 128 l 25
 256 128 l 25
 256 384 l 25
 128 384 l 25
 128 512 l 25
 0 512 l 25
 0 640 l 25
 128 640 l 25
 128 768 l 25
 384 768 l 25
 384 640 l 25
 256 640 l 25
 256 512 l 25
 384 512 l 25
 384 0 l 25
 128 0 l 25
0 128 m 25
 0 384 l 25
 128 384 l 25
 128 128 l 25
 0 128 l 25
EndSplineSet
EndChar

StartChar: 00e4
Encoding: 228 228 228
Width: 512
Flags: HMW
LayerCount: 2
Fore
SplineSet
128 0 m 25
 128 128 l 25
 256 128 l 25
 256 384 l 25
 128 384 l 25
 128 512 l 25
 384 512 l 25
 384 0 l 25
 128 0 l 25
0 128 m 25
 0 384 l 25
 128 384 l 25
 128 128 l 25
 0 128 l 25
0 640 m 25
 0 768 l 25
 128 768 l 25
 128 640 l 25
 0 640 l 25
256 640 m 25
 256 768 l 25
 384 768 l 25
 384 640 l 25
 256 640 l 25
EndSplineSet
EndChar

StartChar: 00e5
Encoding: 229 229 229
Width: 512
Flags: HMW
LayerCount: 2
Fore
SplineSet
128 0 m 25
 128 128 l 25
 256 128 l 25
 256 384 l 25
 128 384 l 25
 128 512 l 25
 256 512 l 25
 256 640 l 25
 384 640 l 25
 384 0 l 25
 128 0 l 25
0 128 m 25
 0 384 l 25
 128 384 l 25
 128 128 l 25
 0 128 l 25
0 512 m 25
 0 640 l 25
 128 640 l 25
 128 512 l 25
 0 512 l 25
128 640 m 25
 128 768 l 25
 256 768 l 25
 256 640 l 25
 128 640 l 25
EndSplineSet
EndChar

StartChar: 00e6
Encoding: 230 230 230
Width: 768
Flags: HMW
LayerCount: 2
Fore
SplineSet
128 0 m 25
 128 128 l 25
 256 128 l 25
 256 384 l 25
 128 384 l 25
 128 512 l 25
 512 512 l 25
 512 384 l 25
 640 384 l 25
 640 256 l 25
 384 256 l 25
 384 128 l 25
 640 128 l 25
 640 0 l 25
 128 0 l 25
0 128 m 25
 0 384 l 25
 128 384 l 25
 128 128 l 25
 0 128 l 25
EndSplineSet
EndChar

StartChar: 00e7
Encoding: 231 231 231
Width: 512
Flags: HMW
LayerCount: 2
Fore
SplineSet
128 -128 m 25
 128 128 l 25
 384 128 l 25
 384 0 l 25
 256 0 l 25
 256 -128 l 25
 128 -128 l 25
0 128 m 25
 0 384 l 25
 128 384 l 25
 128 128 l 25
 0 128 l 25
128 384 m 25
 128 512 l 25
 384 512 l 25
 384 384 l 25
 128 384 l 25
EndSplineSet
EndChar

StartChar: 00e8
Encoding: 232 232 232
Width: 512
Flags: HMW
LayerCount: 2
Fore
SplineSet
128 0 m 25
 128 128 l 25
 384 128 l 25
 384 0 l 25
 128 0 l 25
0 128 m 25
 0 384 l 25
 128 384 l 25
 128 512 l 25
 256 512 l 25
 256 384 l 25
 384 384 l 25
 384 256 l 25
 128 256 l 25
 128 128 l 25
 0 128 l 25
0 512 m 25
 0 640 l 25
 128 640 l 25
 128 512 l 25
 0 512 l 25
EndSplineSet
EndChar

StartChar: 00e9
Encoding: 233 233 233
Width: 512
Flags: HMW
LayerCount: 2
Fore
SplineSet
128 0 m 25
 128 128 l 25
 384 128 l 25
 384 0 l 25
 128 0 l 25
0 128 m 25
 0 384 l 25
 128 384 l 25
 128 512 l 25
 256 512 l 25
 256 384 l 25
 384 384 l 25
 384 256 l 25
 128 256 l 25
 128 128 l 25
 0 128 l 25
256 512 m 25
 256 640 l 25
 384 640 l 25
 384 512 l 25
 256 512 l 25
EndSplineSet
EndChar

StartChar: 00ea
Encoding: 234 234 234
Width: 512
Flags: HMW
LayerCount: 2
Fore
SplineSet
128 0 m 25
 128 128 l 25
 384 128 l 25
 384 0 l 25
 128 0 l 25
0 128 m 25
 0 384 l 25
 128 384 l 25
 128 512 l 25
 256 512 l 25
 256 384 l 25
 384 384 l 25
 384 256 l 25
 128 256 l 25
 128 128 l 25
 0 128 l 25
128 640 m 25
 128 768 l 25
 384 768 l 25
 384 640 l 25
 128 640 l 25
EndSplineSet
EndChar

StartChar: 00eb
Encoding: 235 235 235
Width: 512
Flags: HMW
LayerCount: 2
Fore
SplineSet
128 0 m 25
 128 128 l 25
 384 128 l 25
 384 0 l 25
 128 0 l 25
0 128 m 25
 0 384 l 25
 128 384 l 25
 128 512 l 25
 256 512 l 25
 256 384 l 25
 384 384 l 25
 384 256 l 25
 128 256 l 25
 128 128 l 25
 0 128 l 25
0 640 m 25
 0 768 l 25
 128 768 l 25
 128 640 l 25
 0 640 l 25
256 640 m 25
 256 768 l 25
 384 768 l 25
 384 640 l 25
 256 640 l 25
EndSplineSet
EndChar

StartChar: 00ec
Encoding: 236 236 236
Width: 256
Flags: HMW
LayerCount: 2
Fore
SplineSet
0 0 m 25
 0 512 l 25
 128 512 l 25
 128 0 l 25
 0 0 l 25
128 512 m 25
 128 640 l 25
 256 640 l 25
 256 512 l 25
 128 512 l 25
0 640 m 25
 0 768 l 25
 128 768 l 25
 128 640 l 25
 0 640 l 25
EndSplineSet
EndChar

StartChar: 00ed
Encoding: 237 237 237
Width: 256
Flags: HMW
LayerCount: 2
Fore
SplineSet
0 0 m 25
 0 384 l 25
 128 384 l 25
 128 0 l 25
 0 0 l 25
0 512 m 25
 0 640 l 25
 128 640 l 25
 128 512 l 25
 0 512 l 25
128 640 m 25
 128 768 l 25
 256 768 l 25
 256 640 l 25
 128 640 l 25
EndSplineSet
EndChar

StartChar: 00ee
Encoding: 238 238 238
Width: 256
Flags: HMW
LayerCount: 2
Fore
SplineSet
0 0 m 25
 0 512 l 25
 128 512 l 25
 128 0 l 25
 0 0 l 25
0 640 m 25
 0 768 l 25
 256 768 l 25
 256 640 l 25
 0 640 l 25
EndSplineSet
EndChar

StartChar: 00ef
Encoding: 239 239 239
Width: 512
Flags: HMW
LayerCount: 2
Fore
SplineSet
128 0 m 25
 128 512 l 25
 256 512 l 25
 256 0 l 25
 128 0 l 25
0 640 m 25
 0 768 l 25
 128 768 l 25
 128 640 l 25
 0 640 l 25
256 640 m 25
 256 768 l 25
 384 768 l 25
 384 640 l 25
 256 640 l 25
EndSplineSet
EndChar

StartChar: 00f0
Encoding: 240 240 240
Width: 512
Flags: HMW
LayerCount: 2
Fore
SplineSet
128 0 m 25
 128 128 l 25
 256 128 l 25
 256 0 l 25
 128 0 l 25
0 128 m 25
 0 256 l 25
 128 256 l 25
 128 128 l 25
 0 128 l 25
256 128 m 25
 256 256 l 25
 128 256 l 25
 128 384 l 25
 256 384 l 25
 256 512 l 25
 384 512 l 25
 384 128 l 25
 256 128 l 25
128 512 m 25
 128 640 l 25
 256 640 l 25
 256 512 l 25
 128 512 l 25
EndSplineSet
EndChar

StartChar: 00f1
Encoding: 241 241 241
Width: 512
Flags: HMW
LayerCount: 2
Fore
SplineSet
0 0 m 25
 0 512 l 25
 256 512 l 25
 256 384 l 25
 128 384 l 25
 128 0 l 25
 0 0 l 25
256 0 m 25
 256 384 l 25
 384 384 l 25
 384 0 l 25
 256 0 l 25
0 640 m 25
 0 768 l 25
 256 768 l 25
 256 640 l 25
 0 640 l 25
EndSplineSet
EndChar

StartChar: 00f2
Encoding: 242 242 242
Width: 512
Flags: HMW
LayerCount: 2
Fore
SplineSet
128 0 m 25
 128 128 l 25
 256 128 l 25
 256 0 l 25
 128 0 l 25
0 128 m 25
 0 384 l 25
 128 384 l 25
 128 128 l 25
 0 128 l 25
256 128 m 25
 256 384 l 25
 384 384 l 25
 384 128 l 25
 256 128 l 25
128 384 m 25
 128 512 l 25
 256 512 l 25
 256 384 l 25
 128 384 l 25
0 512 m 25
 0 640 l 25
 128 640 l 25
 128 512 l 25
 0 512 l 25
EndSplineSet
EndChar

StartChar: 00f3
Encoding: 243 243 243
Width: 512
Flags: HMW
LayerCount: 2
Fore
SplineSet
128 0 m 25
 128 128 l 25
 256 128 l 25
 256 0 l 25
 128 0 l 25
0 128 m 25
 0 384 l 25
 128 384 l 25
 128 128 l 25
 0 128 l 25
256 128 m 25
 256 384 l 25
 384 384 l 25
 384 128 l 25
 256 128 l 25
128 384 m 25
 128 512 l 25
 256 512 l 25
 256 384 l 25
 128 384 l 25
256 512 m 25
 256 640 l 25
 384 640 l 25
 384 512 l 25
 256 512 l 25
EndSplineSet
EndChar

StartChar: 00f4
Encoding: 244 244 244
Width: 512
Flags: HMW
LayerCount: 2
Fore
SplineSet
128 0 m 25
 128 128 l 25
 256 128 l 25
 256 0 l 25
 128 0 l 25
0 128 m 25
 0 384 l 25
 128 384 l 25
 128 128 l 25
 0 128 l 25
256 128 m 25
 256 384 l 25
 384 384 l 25
 384 128 l 25
 256 128 l 25
128 384 m 25
 128 512 l 25
 256 512 l 25
 256 384 l 25
 128 384 l 25
128 640 m 25
 128 768 l 25
 384 768 l 25
 384 640 l 25
 128 640 l 25
EndSplineSet
EndChar

StartChar: 00f5
Encoding: 245 245 245
Width: 512
Flags: HMW
LayerCount: 2
Fore
SplineSet
128 0 m 25
 128 128 l 25
 256 128 l 25
 256 0 l 25
 128 0 l 25
0 128 m 25
 0 384 l 25
 128 384 l 25
 128 128 l 25
 0 128 l 25
256 128 m 25
 256 384 l 25
 384 384 l 25
 384 128 l 25
 256 128 l 25
128 384 m 25
 128 512 l 25
 0 512 l 25
 0 640 l 25
 128 640 l 25
 128 768 l 25
 384 768 l 25
 384 640 l 25
 256 640 l 25
 256 384 l 25
 128 384 l 25
EndSplineSet
EndChar

StartChar: 00f6
Encoding: 246 246 246
Width: 512
Flags: HMW
LayerCount: 2
Fore
SplineSet
128 0 m 25
 128 128 l 25
 256 128 l 25
 256 0 l 25
 128 0 l 25
0 128 m 25
 0 384 l 25
 128 384 l 25
 128 128 l 25
 0 128 l 25
256 128 m 25
 256 384 l 25
 384 384 l 25
 384 128 l 25
 256 128 l 25
128 384 m 25
 128 512 l 25
 256 512 l 25
 256 384 l 25
 128 384 l 25
0 640 m 25
 0 768 l 25
 128 768 l 25
 128 640 l 25
 0 640 l 25
256 640 m 25
 256 768 l 25
 384 768 l 25
 384 640 l 25
 256 640 l 25
EndSplineSet
EndChar

StartChar: 00f7
Encoding: 247 247 247
Width: 512
Flags: HMW
LayerCount: 2
Fore
SplineSet
128 0 m 25
 128 128 l 25
 256 128 l 25
 256 0 l 25
 128 0 l 25
0 256 m 25
 0 384 l 25
 384 384 l 25
 384 256 l 25
 0 256 l 25
128 512 m 25
 128 640 l 25
 256 640 l 25
 256 512 l 25
 128 512 l 25
EndSplineSet
EndChar

StartChar: 00f8
Encoding: 248 248 248
Width: 512
Flags: HMW
LayerCount: 2
Fore
SplineSet
128 0 m 25
 128 128 l 25
 256 128 l 25
 256 0 l 25
 128 0 l 25
0 128 m 25
 0 384 l 25
 128 384 l 25
 128 512 l 25
 256 512 l 25
 256 384 l 25
 384 384 l 25
 384 128 l 25
 256 128 l 25
 256 256 l 25
 128 256 l 25
 128 128 l 25
 0 128 l 25
EndSplineSet
EndChar

StartChar: 00f9
Encoding: 249 249 249
Width: 512
Flags: HMW
LayerCount: 2
Fore
SplineSet
128 0 m 25
 128 128 l 25
 256 128 l 25
 256 512 l 25
 384 512 l 25
 384 0 l 25
 128 0 l 25
0 128 m 25
 0 512 l 25
 128 512 l 25
 128 128 l 25
 0 128 l 25
128 512 m 25
 128 640 l 25
 256 640 l 25
 256 512 l 25
 128 512 l 25
0 640 m 25
 0 768 l 25
 128 768 l 25
 128 640 l 25
 0 640 l 25
EndSplineSet
EndChar

StartChar: 00fa
Encoding: 250 250 250
Width: 512
Flags: HMW
LayerCount: 2
Fore
SplineSet
128 0 m 25
 128 128 l 25
 256 128 l 25
 256 512 l 25
 384 512 l 25
 384 0 l 25
 128 0 l 25
0 128 m 25
 0 512 l 25
 128 512 l 25
 128 128 l 25
 0 128 l 25
128 512 m 25
 128 640 l 25
 256 640 l 25
 256 512 l 25
 128 512 l 25
256 640 m 25
 256 768 l 25
 384 768 l 25
 384 640 l 25
 256 640 l 25
EndSplineSet
EndChar

StartChar: 00fb
Encoding: 251 251 251
Width: 512
Flags: HMW
LayerCount: 2
Fore
SplineSet
128 0 m 25
 128 128 l 25
 256 128 l 25
 256 512 l 25
 384 512 l 25
 384 0 l 25
 128 0 l 25
0 128 m 25
 0 512 l 25
 128 512 l 25
 128 128 l 25
 0 128 l 25
128 640 m 25
 128 768 l 25
 384 768 l 25
 384 640 l 25
 128 640 l 25
EndSplineSet
EndChar

StartChar: 00fc
Encoding: 252 252 252
Width: 512
Flags: HMW
LayerCount: 2
Fore
SplineSet
128 0 m 25
 128 128 l 25
 256 128 l 25
 256 512 l 25
 384 512 l 25
 384 0 l 25
 128 0 l 25
0 128 m 25
 0 512 l 25
 128 512 l 25
 128 128 l 25
 0 128 l 25
0 640 m 25
 0 768 l 25
 128 768 l 25
 128 640 l 25
 0 640 l 25
256 640 m 25
 256 768 l 25
 384 768 l 25
 384 640 l 25
 256 640 l 25
EndSplineSet
EndChar

StartChar: 00fd
Encoding: 253 253 253
Width: 512
Flags: HMW
LayerCount: 2
Fore
SplineSet
0 -128 m 25
 0 0 l 25
 128 0 l 25
 128 -128 l 25
 0 -128 l 25
128 0 m 25
 128 128 l 25
 256 128 l 25
 256 0 l 25
 128 0 l 25
0 128 m 25
 0 512 l 25
 128 512 l 25
 128 128 l 25
 0 128 l 25
256 128 m 25
 256 512 l 25
 384 512 l 25
 384 128 l 25
 256 128 l 25
128 512 m 25
 128 640 l 25
 256 640 l 25
 256 512 l 25
 128 512 l 25
256 640 m 25
 256 768 l 25
 384 768 l 25
 384 640 l 25
 256 640 l 25
EndSplineSet
EndChar

StartChar: 00fe
Encoding: 254 254 254
Width: 512
Flags: HMW
LayerCount: 2
Fore
SplineSet
0 -128 m 25
 0 640 l 25
 128 640 l 25
 128 512 l 25
 256 512 l 25
 256 384 l 25
 128 384 l 25
 128 128 l 25
 256 128 l 25
 256 0 l 25
 128 0 l 25
 128 -128 l 25
 0 -128 l 25
256 128 m 25
 256 384 l 25
 384 384 l 25
 384 128 l 25
 256 128 l 25
EndSplineSet
EndChar

StartChar: 00ff
Encoding: 255 255 255
Width: 512
Flags: HMW
LayerCount: 2
Fore
SplineSet
0 -128 m 25
 0 0 l 25
 128 0 l 25
 128 -128 l 25
 0 -128 l 25
128 0 m 25
 128 128 l 25
 256 128 l 25
 256 0 l 25
 128 0 l 25
0 128 m 25
 0 512 l 25
 128 512 l 25
 128 128 l 25
 0 128 l 25
256 128 m 25
 256 512 l 25
 384 512 l 25
 384 128 l 25
 256 128 l 25
0 640 m 25
 0 768 l 25
 128 768 l 25
 128 640 l 25
 0 640 l 25
256 640 m 25
 256 768 l 25
 384 768 l 25
 384 640 l 25
 256 640 l 25
EndSplineSet
EndChar
